<svg xmlns="http://www.w3.org/2000/svg" viewBox="0 0 16.933 16.933"><path d="M15.225 8.517c0 .378-.031.755-.094 1.127v.001a6.705 6.705 0 01-9.273 5.026h-.002a6.713 6.713 0 01-3.911-4.83 6.788 6.788 0 01-.103-1.926v-.001a6.705 6.705 0 0113.382.511v.001l.001.091z" fill="#6c63ff"/><path d="M10.17 6.278H7.169l-1.502-2.6 1.019-1.765.06-.016a6.876 6.876 0 013.918.11l.054.017.955 1.654zM7.34 5.98h2.659l1.33-2.302-.813-1.406a6.61 6.61 0 00-3.635-.103l-.87 1.509zM10.022 11.642H7.019l-1.502-2.6L7.02 6.44h3.003l1.501 2.6zm-2.831-.298H9.85l1.33-2.303L9.85 6.74H7.19L5.862 9.04zM8.52 15.371a6.792 6.792 0 01-2.722-.563l-.153-.067 1.523-2.639h3.003l1.458 2.527-.145.07a6.789 6.789 0 01-2.964.672zM6.071 14.6a6.564 6.564 0 005.138-.102L10 12.4H7.34zM15.088 8.96h-3.003l-1.502-2.6 1.502-2.602h1.367l.044.047a6.821 6.821 0 011.877 4.618v.043zm-2.831-.298h2.659l.158-.274a6.523 6.523 0 00-1.75-4.332h-1.067l-1.33 2.304zM12.043 14.4l-1.46-2.527 1.502-2.602h3.003l.192.333-.002.066a6.87 6.87 0 01-3.104 4.647zm-1.116-2.527l1.218 2.108a6.568 6.568 0 002.83-4.309l-.06-.103h-2.658zM5.11 14.464l-.13-.078A6.87 6.87 0 011.8 9.87l-.012-.055.314-.544h3.003l1.501 2.602zM2.101 9.866a6.574 6.574 0 002.902 4.185l1.258-2.178-1.33-2.304H2.275zM5.105 8.662H2.102l-.409-.706v-.04A6.834 6.834 0 013.853 3.5l.042-.04h1.21l1.501 2.602zm-2.831-.298h2.659l1.33-2.302-1.33-2.304h-.92a6.528 6.528 0 00-2.018 4.124z" fill="#fff"/></svg>