<svg fill="none" xmlns="http://www.w3.org/2000/svg" viewBox="0 0 857 511"><style>@keyframes skakej{from{transform:translate(0, 0)}to{transform:translate(0, -110px)}}@keyframes zmenBarvu{from{fill:rgb(36, 150, 185)}to{fill:rgb(255, 48, 64)}}@keyframes otocNohou{from{transform:rotate(15deg)}to{transform:rotate(0)}}@keyframes otocRukou{0%{transform:rotate(20deg)}100%{transform:rotate(-10deg)}}</style><g id="fotbalista"><g id="pozadi"><path d="M857 437a97 97 0 00-153-74 97 97 0 00-37 53h-4a97 97 0 00-93 70 68 68 0 00-81 20h302a66 66 0 0066-69z" fill="#E6E6E6" style="animation:zmenBarvu 1s alternate infinite"/><path id="Vector_2" d="M849 505H0v2h849v-2z" fill="#3F3D56"/></g><g style="animation:otocRukou 1s alternate infinite;transform-origin:right;transform-box:fill-box"><path id="Vector_5" d="M283 180s-38-12-32 8 38 10 38 10l-6-18z" fill="#FFB8B8"/><path id="Vector_6" d="M431 106s-20-27-39 1l-37 51-48 16-28 2 8 25 80-12s90-53 64-83z" fill="#2F2E41"/></g><g id="telo"><path id="Vector_7" d="M343 256s-30 21-28 40 15 71 15 71l27-4s3-40-7-55l48-27-55-25z" fill="#FFB8B8"/><path id="Vector_8" d="M409 305s-2 37 3 52 10 71 10 71h28s13-49-3-71c0 0-5-29 9-43l-47-9z" fill="#FFB8B8"/><path id="Vector_9" d="M403 203s-65 41-65 54l52 43 18-20-2 30 56 11s20-76 19-79l-4-47-74 8z" fill="#2F2E41"/><path id="Vector_10" d="M357 358l-29 6 5 21c2 10 2 21 1 32 0 0 30 8 30 4s-7-20-5-31-2-32-2-32z" fill="#6C63FF"/><path id="Vector_11" d="M452 424l-32-2s2 33-2 44c-3 11-2 15-2 15l28 2 8-59z" fill="#6C63FF"/><path id="Vector_12" d="M452 497c0-5-4-24-5-21s-18 4-22-3c0 0-7-8-11-2l-13 17s-29 7-27 14c1 2 3 3 6 4v1a2 2 0 001 2h1a2 2 0 002-1v-1-1l2 1-1 1a2 2 0 002 2 2 2 0 002-1l1-1a2 2 0 00-1-1h7v1a2 2 0 001 2h1a2 2 0 002-1v-1a2 2 0 00-1-1 216 216 0 005 0v1a2 2 0 001 2h1a2 2 0 002-1v-1a2 2 0 00-1-2l11-1 11-1a2 2 0 002 2 2 2 0 002-1v-1a2 2 0 000-1l4-1v1a2 2 0 001 2h1a2 2 0 002-1v-1a2 2 0 00-1-2l4-1v1a2 2 0 001 2h1a2 2 0 002-1v-1a2 2 0 00-1-1l5-3z" fill="#2F2E41"/><path id="Vector_13" d="M403 73a29 29 0 10-1-58 29 29 0 001 58z" fill="#FFB8B8"/><path id="Vector_14" d="M429 41s16 20 24 19l-35 27s-4-17-9-19 20-27 20-27z" fill="#FFB8B8"/><path id="Vector_15" d="M491 189s0-110-19-120l-30-15a26 26 0 01-10 19c-6 5-12 9-16 9v-2l-10 16s-9 2-12 8c-2 3 6 35 1 65-4 25-20 48-20 51-1 4 18-8 27-14l1 1 5-1c5-2 13-2 19-2v4c1 10 51 24 58 21s6-40 6-40z" fill="#2F2E41"/><path id="Vector_16" d="M456 227s-30 27-10 32 28-28 28-28l-18-4z" fill="#FFB8B8"/><path id="Vector_17" d="M421 297s14-13 22-6l13 12s-23-14-35-6z" fill="#6C63FF"/><path id="Vector_18" d="M425 453s8-8 12-4l7 7s-13-8-19-3z" fill="#2F2E41"/><path id="Vector_19" d="M336 384s6-9 11-6l9 4s-15-4-20 2z" fill="#2F2E41"/><path id="Vector_20" d="M483 83c-9-20-40-9-35 13l1 1c5 20 13 40 25 58l-11 49-12 25 25 6 31-75s-9-48-24-77z" fill="#2F2E41"/><path id="Vector_21" opacity=".2" d="M469 156l-19 72 16-34 3-38z" fill="#000"/><path id="Vector_22" d="M421 10s-16-17-32-6c-17 10-24 20-23 28l7 17s-3-15 10-16 32-10 32-10l12 27s2-7 7-5 1-33-13-35z" fill="#2F2E41"/></g><path d="M372 433c-1-4-10-23-10-20 0 4-16 9-22 3 0 0-8-7-11 0l-9 19s-27 13-23 20l6 2v1a2 2 0 001 2h1a2 2 0 002-2v-1l-1-1h3v2a2 2 0 001 2h1a2 2 0 002-2v-1a2 2 0 00-1-1l7-2v2a2 2 0 001 2h1a2 2 0 002-2v-1a2 2 0 00-1-1 223 223 0 005-1v1a2 2 0 001 2h1a2 2 0 002-2v-1a2 2 0 00-2-1l11-3 11-5v1a2 2 0 001 2h1a2 2 0 002-2v-1a2 2 0 00-1-1l4-2v1a2 2 0 001 2h1a2 2 0 002-2v-1a2 2 0 00-1-1l4-2v1a2 2 0 001 2h1a2 2 0 002-2v-1a2 2 0 00-2-1l5-4z" fill="#2F2E41" style="transform-origin:right;transform-box:fill-box;animation:otocNohou 1s alternate infinite"/><g style="animation:skakej 1s alternate infinite"><path id="Vector_23" d="M318 391l-1 8a45 45 0 01-62 33 44 44 0 01-19-15 45 45 0 01-8-30 45 45 0 0190 3v1z" fill="#6C63FF"/><path id="Vector_24" d="M284 376h-20l-10-17 7-12c9-3 18-2 26 0h1l6 12-10 17zm-19-2h18l9-15-6-10c-8-2-16-3-24-1l-6 11 9 15z" fill="#fff"/><path id="Vector_25" d="M283 412h-20l-10-17 10-18h20l10 18-10 17zm-19-2h18l9-15-9-16h-18l-9 16 9 15z" fill="#fff"/><path id="Vector_26" d="M273 437c-6 0-13-1-18-4h-1l10-18h20l10 17-1 1c-6 3-13 4-20 4zm-16-5a44 44 0 0034-1l-8-14h-18l-8 15z" fill="#fff"/><path id="Vector_27" d="M317 394h-20l-10-17 10-18h9c8 9 13 20 13 31v1l-2 3zm-19-2h18l1-2c0-11-4-21-12-29h-7l-9 16 9 15z" fill="#fff"/><path id="Vector_28" d="M297 431l-10-17 10-18h20l1 2v1a46 46 0 01-20 31l-1 1zm-8-17l8 14a44 44 0 0019-29v-1h-18l-9 16z" fill="#fff"/><path id="Vector_29" d="M250 431l-1-1a46 46 0 01-21-30l2-4h20l10 18-10 17zm-20-31a44 44 0 0019 28l9-14-9-16h-18l-1 2z" fill="#fff"/><path id="Vector_30" d="M250 392h-20l-3-5c1-11 6-22 15-30h8l10 18-10 17zm-19-2h18l9-15-9-16h-6c-8 7-13 17-14 28l2 3z" fill="#fff"/></g></g></svg>