<svg id="Layer_1" enable-background="new 0 0 512.106 512.106" height="512" viewBox="0 0 512.106 512.106" width="512" xmlns="http://www.w3.org/2000/svg"><g><g><path d="m270.169 360.682c-.196-.453-4.907-11.084-14.154-11.084-9.212 0-13.866 10.59-14.06 11.041l.065-.157-27.845-11.167c4.427-11.037 18.22-29.716 41.839-29.716 23.592 0 37.436 18.651 41.897 29.671l-27.808 11.257z" fill="#00969c"/></g><path d="m256.015 319.597v30c9.208 0 13.969 10.656 14.154 11.084l-.064-.156 27.808-11.257c-4.369-10.791-18.12-29.671-41.898-29.671z" fill="#006468"/><g><g><path d="m497.119 291.491c-4.918 0-9.735-2.415-12.606-6.851l-123.526-190.82c-2.22-3.428-6.35-4.978-10.275-3.855-3.937 1.125-6.688 4.771-6.688 8.867v25.49c0 8.284-6.716 15-15 15s-15-6.716-15-15v-25.49c0-17.418 11.697-32.926 28.446-37.712 16.702-4.771 34.262 1.819 43.7 16.398l123.526 190.82c4.502 6.955 2.514 16.242-4.44 20.743-2.519 1.63-5.345 2.41-8.137 2.41z" fill="#00969c"/></g></g><g><g><path d="m14.988 291.491c-2.793 0-5.618-.779-8.137-2.41-6.954-4.502-8.942-13.789-4.44-20.743l123.526-190.82c9.438-14.58 27-21.168 43.699-16.398 16.749 4.786 28.447 20.293 28.447 37.712v25.49c0 8.284-6.716 15-15 15s-15-6.716-15-15v-25.49c0-4.095-2.75-7.742-6.688-8.867-3.927-1.12-8.055.427-10.273 3.855l-123.528 190.82c-2.872 4.436-7.689 6.851-12.606 6.851z" fill="#00ccb2"/></g></g><path d="m122.163 437.523h-1.225c-58.507 0-105.936-15.971-105.936-74.478v-86.556h171.145c23.169 0 41.951 18.782 41.951 41.951v44.605c0 58.506-47.429 74.478-105.935 74.478z" fill="#006468"/><path d="m122.163 452.523h-1.225c-35.705 0-62.699-5.685-82.528-17.378-25.485-15.031-38.408-39.289-38.408-72.1v-86.556c0-8.284 6.716-15 15-15h171.145c31.403 0 56.951 25.548 56.951 56.951v44.604c0 32.811-12.922 57.069-38.408 72.1-19.828 11.694-46.823 17.379-82.527 17.379zm-65.775-161.034c-14.572 0-26.386 11.813-26.386 26.386v45.17c0 27.692 10.336 59.478 90.936 59.478h1.225c80.6 0 90.936-31.786 90.936-59.478v-44.605c0-14.885-12.066-26.951-26.951-26.951z" fill="#00eed0"/><path d="m391.169 437.523h-1.225c-58.507 0-105.936-15.971-105.936-74.478v-44.605c0-23.169 18.782-41.951 41.951-41.951h171.145v86.556c.001 58.506-47.428 74.478-105.935 74.478z" fill="#004244"/><path d="m391.169 452.523h-1.225c-35.705 0-62.7-5.685-82.528-17.378-25.486-15.031-38.408-39.289-38.408-72.1v-44.605c0-31.403 25.548-56.951 56.951-56.951h171.145c8.284 0 15 6.716 15 15v86.556c0 32.811-12.922 57.069-38.408 72.1-19.827 11.693-46.822 17.378-82.527 17.378zm-65.209-161.034c-14.885 0-26.951 12.066-26.951 26.951v44.604c0 27.692 10.336 59.478 90.936 59.478h1.225c80.6 0 90.936-31.786 90.936-59.478v-45.17c0-14.572-11.813-26.386-26.386-26.386h-129.76z" fill="#00ccb2"/></g></svg>