<?xml version="1.0" encoding="UTF-8" standalone="no"?>
<!-- Created with Inkscape (http://www.inkscape.org/) -->

<svg
   xmlns:dc="http://purl.org/dc/elements/1.1/"
   xmlns:cc="http://creativecommons.org/ns#"
   xmlns:rdf="http://www.w3.org/1999/02/22-rdf-syntax-ns#"
   xmlns:svg="http://www.w3.org/2000/svg"
   xmlns="http://www.w3.org/2000/svg"
   xmlns:sodipodi="http://sodipodi.sourceforge.net/DTD/sodipodi-0.dtd"
   xmlns:inkscape="http://www.inkscape.org/namespaces/inkscape"
   width="99.704285mm"
   height="143.26038mm"
   viewBox="0 0 353.2829 507.6155"
   id="svg4162"
   version="1.1"
   inkscape:version="0.91 r13725"
   sodipodi:docname="Flour.svg">
  <defs
     id="defs4164" />
  <sodipodi:namedview
     id="base"
     pagecolor="#ffffff"
     bordercolor="#666666"
     borderopacity="1.0"
     inkscape:pageopacity="0.0"
     inkscape:pageshadow="2"
     inkscape:zoom="1.4191006"
     inkscape:cx="-192.54235"
     inkscape:cy="298.31954"
     inkscape:document-units="px"
     inkscape:current-layer="layer1"
     showgrid="false"
     showguides="true"
     inkscape:guide-bbox="true"
     fit-margin-top="0"
     fit-margin-left="0"
     fit-margin-right="0"
     fit-margin-bottom="0"
     inkscape:window-width="1920"
     inkscape:window-height="1017"
     inkscape:window-x="0"
     inkscape:window-y="30"
     inkscape:window-maximized="1" />
  <metadata
     id="metadata4167">
    <rdf:RDF>
      <cc:Work
         rdf:about="">
        <dc:format>image/svg+xml</dc:format>
        <dc:type
           rdf:resource="http://purl.org/dc/dcmitype/StillImage" />
        <dc:title />
      </cc:Work>
    </rdf:RDF>
  </metadata>
  <g
     inkscape:label="Layer 1"
     inkscape:groupmode="layer"
     id="layer1"
     transform="translate(-94.999999,-451.21352)">
    <path
       style="fill:#ffffff;fill-rule:evenodd;stroke:#000000;stroke-width:10;stroke-linecap:butt;stroke-linejoin:miter;stroke-miterlimit:4;stroke-dasharray:none;stroke-opacity:1;fill-opacity:1"
       d="m 101.01015,952.78063 265.20921,-2.02031 0.50508,-443.69398 -265.71429,0 z"
       id="path4720"
       inkscape:connector-curvature="0"
       sodipodi:nodetypes="ccccc" />
    <path
       style="fill:#ffffff;fill-rule:evenodd;stroke:#000000;stroke-width:10;stroke-linecap:butt;stroke-linejoin:miter;stroke-miterlimit:4;stroke-dasharray:none;stroke-opacity:1;fill-opacity:1"
       d="m 444.93873,460.63829 -77.49945,47.8563 3.03046,437.38109 71.2547,-62.38109 z"
       id="path4724"
       inkscape:connector-curvature="0"
       sodipodi:nodetypes="ccccc" />
    <path
       style="fill:none;fill-rule:evenodd;stroke:#000000;stroke-width:9.71722126;stroke-linecap:butt;stroke-linejoin:miter;stroke-miterlimit:4;stroke-dasharray:none;stroke-opacity:1"
       d="m 100.91762,507.19725 94.97399,-49.67008 237.43499,0 -72.62717,49.67008 z"
       id="path4728"
       inkscape:connector-curvature="0" />
    <path
       style="fill:none;fill-rule:evenodd;stroke:#000000;stroke-width:10;stroke-linecap:butt;stroke-linejoin:miter;stroke-miterlimit:4;stroke-dasharray:none;stroke-opacity:1"
       d="m 198.15301,455.63777 168.57143,51.42857 60.35714,-47.5 -326.07143,47.5 z"
       id="path4730"
       inkscape:connector-curvature="0"
       sodipodi:nodetypes="ccccc" />
    <path
       style="fill:#33de1a;fill-opacity:0.86624205;fill-rule:evenodd;stroke:#000000;stroke-width:10;stroke-linecap:butt;stroke-linejoin:miter;stroke-miterlimit:4;stroke-dasharray:none;stroke-opacity:1"
       d="m 101.01015,780.63777 265.71429,0 74.28571,-52.14286 0,52.14286 -74.28571,62.14286 -265.71429,0 z"
       id="path4736"
       inkscape:connector-curvature="0" />
    <path
       style="fill:none;fill-rule:evenodd;stroke:#000000;stroke-width:10;stroke-linecap:butt;stroke-linejoin:miter;stroke-miterlimit:4;stroke-dasharray:none;stroke-opacity:1"
       d="m 366.72444,781.35205 0,61.42858"
       id="path4738"
       inkscape:connector-curvature="0" />
    <flowRoot
       xml:space="preserve"
       id="flowRoot4147"
       style="font-style:normal;font-weight:normal;font-size:40px;line-height:125%;font-family:sans-serif;letter-spacing:0px;word-spacing:0px;fill:#000000;fill-opacity:1;stroke:none;stroke-width:1px;stroke-linecap:butt;stroke-linejoin:miter;stroke-opacity:1;"
       transform="translate(112.17259,460.30489)"><flowRegion
         id="flowRegion4149"><rect
           id="rect4151"
           width="203.04066"
           height="79.802048"
           x="36.36549"
           y="174.26517"
           style="font-size:40px;" /></flowRegion><flowPara
         id="flowPara4153" /></flowRoot>    <text
       xml:space="preserve"
       style="font-style:normal;font-weight:normal;font-size:40px;line-height:125%;font-family:sans-serif;letter-spacing:0px;word-spacing:0px;fill:#000000;fill-opacity:1;stroke:none;stroke-width:1px;stroke-linecap:butt;stroke-linejoin:miter;stroke-opacity:1"
       x="173.79189"
       y="824.47876"
       id="text4155"
       sodipodi:linespacing="125%"><tspan
         sodipodi:role="line"
         id="tspan4157"
         x="173.79189"
         y="824.47876">Hladká</tspan></text>
    <flowRoot
       xml:space="preserve"
       id="flowRoot4183"
       style="fill:black;stroke:none;stroke-opacity:1;stroke-width:1px;stroke-linejoin:miter;stroke-linecap:butt;fill-opacity:1;font-family:sans-serif;font-style:normal;font-weight:normal;font-size:40px;line-height:125%;letter-spacing:0px;word-spacing:0px"><flowRegion
         id="flowRegion4185"><rect
           id="rect4187"
           width="132.32999"
           height="51.51778"
           x="285.87317"
           y="-59.080074" /></flowRegion><flowPara
         id="flowPara4189" /></flowRoot>    <text
       sodipodi:linespacing="125%"
       id="text4195"
       y="541.92688"
       x="186.25471"
       style="font-style:normal;font-weight:normal;font-size:75.10520935px;line-height:125%;font-family:sans-serif;letter-spacing:0px;word-spacing:0px;fill:#000000;fill-opacity:1;stroke:#000000;stroke-width:1;stroke-linecap:butt;stroke-linejoin:miter;stroke-miterlimit:4;stroke-dasharray:none;stroke-opacity:1"
       xml:space="preserve"
       transform="scale(0.79040581,1.2651729)"><tspan
         y="541.92688"
         x="186.25471"
         id="tspan4197"
         sodipodi:role="line">Mouka</tspan></text>
    <path
       style="opacity:1;fill:#ffffff;fill-opacity:1;stroke:#000000;stroke-width:0;stroke-miterlimit:4;stroke-dasharray:none;stroke-opacity:1"
       d="m 279.36154,314.83586 c -7.1e-4,-7.14809 -1.17988,-174.2498 -1.34975,-191.27592 l -0.18888,-18.93101 33.09434,0 33.09435,0 0.002,4.8637 c 0.003,7.5615 -1.22956,163.77646 -1.29279,163.8248 -0.0309,0.0236 -13.92893,9.77477 -30.88453,21.66928 -16.9556,11.89451 -31.19875,21.88768 -31.65145,22.20706 l -0.82308,0.58069 -3e-4,-2.9386 z"
       id="path4151"
       inkscape:connector-curvature="0"
       transform="translate(94.999999,451.21352)" />
    <path
       style="opacity:1;fill:#ffffff;fill-opacity:1;stroke:#000000;stroke-width:0;stroke-miterlimit:4;stroke-dasharray:none;stroke-opacity:1"
       d="m 279.36129,315.42847 c -0.002,-6.73268 -1.19073,-174.04996 -1.35728,-190.97062 l -0.19517,-19.82892 33.10138,0 33.10138,0 0.001,5.76161 c 0.002,8.41362 -1.22068,162.86986 -1.28975,162.93116 -0.10712,0.0949 -60.49355,42.46774 -61.93981,43.4627 l -1.42169,0.97806 -5.5e-4,-2.33399 z"
       id="path4153"
       inkscape:connector-curvature="0"
       transform="translate(94.999999,451.21352)" />
    <path
       style="opacity:1;fill:#ffffff;fill-opacity:1;stroke:#000000;stroke-width:0;stroke-miterlimit:4;stroke-dasharray:none;stroke-opacity:1"
       d="m 279.36184,316.17633 c 0,-3.03422 -0.89481,-128.43255 -1.19452,-167.39999 -0.16586,-21.56489 -0.30167,-40.32006 -0.30179,-41.67815 l -2.2e-4,-2.46926 33.07315,0 33.07314,0 -10e-4,7.85674 c -0.002,8.8916 -0.76095,108.70073 -1.06617,140.17323 l -0.20052,20.67593 -31.29129,21.97496 c -17.21029,12.08622 -31.47112,22.08266 -31.69083,22.21431 -0.31294,0.18751 -0.39945,-0.10438 -0.39945,-1.34777 z"
       id="path4155"
       inkscape:connector-curvature="0"
       transform="translate(94.999999,451.21352)" />
    <path
       style="opacity:1;fill:#ffffff;fill-opacity:1;stroke:#000000;stroke-width:0;stroke-miterlimit:4;stroke-dasharray:none;stroke-opacity:1"
       d="m 11.18504,446.62835 0,-49.87827 127.5037,0 127.5037,0 0,48.75649 0,48.75649 -3.66648,0.1691 c -2.01656,0.093 -52.62521,0.51133 -112.46365,0.92962 -59.838445,0.41829 -115.565194,0.84699 -123.837221,0.95268 l -15.040049,0.19216 0,-49.87827 z"
       id="path4163"
       inkscape:connector-curvature="0"
       transform="translate(94.999999,451.21352)" />
    <path
       style="opacity:1;fill:#ffffff;fill-opacity:1;stroke:#000000;stroke-width:0;stroke-miterlimit:4;stroke-dasharray:none;stroke-opacity:1"
       d="m 11.18504,446.61853 0,-49.86845 127.5037,0 127.5037,0 0,48.7571 0,48.7571 -3.36718,0.17056 c -1.85194,0.0938 -24.58037,0.31307 -50.50762,0.48725 -67.87309,0.45596 -157.941108,1.13519 -181.154027,1.36614 l -19.978573,0.19876 0,-49.86846 z"
       id="path4165"
       inkscape:connector-curvature="0"
       transform="translate(94.999999,451.21352)" />
    <path
       style="opacity:1;fill:#ffffff;fill-opacity:1;stroke:#000000;stroke-width:0;stroke-miterlimit:4;stroke-dasharray:none;stroke-opacity:1"
       d="m 280.45052,467.15433 c -0.10379,-8.84427 -0.27462,-29.49123 -0.37963,-45.88214 l -0.19092,-29.80165 31.00864,-25.94381 c 17.05475,-14.26909 31.1003,-25.9438 31.21233,-25.9438 0.19499,0 0.0319,30.68832 -0.37902,71.30813 l -0.193,19.07951 -29.5122,25.84873 c -16.2317,14.2168 -29.93188,26.20125 -30.44484,26.63212 l -0.93265,0.78339 -0.18871,-16.08048 z"
       id="path4167"
       inkscape:connector-curvature="0"
       transform="translate(94.999999,451.21352)" />
    <path
       style="opacity:1;fill:#ffffff;fill-opacity:1;stroke:#000000;stroke-width:0;stroke-miterlimit:4;stroke-dasharray:none;stroke-opacity:1"
       d="m 280.43923,467.03019 c -0.10546,-8.94061 -0.22266,-29.64719 -0.26044,-46.01462 l -0.0687,-29.75896 30.82836,-25.81803 c 16.95559,-14.19991 30.94962,-25.82649 31.09782,-25.83684 0.25876,-0.0181 0.12033,31.72992 -0.3155,72.35738 l -0.19366,18.05243 -29.8106,26.06377 c -16.39583,14.33507 -30.09746,26.32179 -30.44807,26.63715 l -0.63748,0.57338 -0.19174,-16.25566 z"
       id="path4169"
       inkscape:connector-curvature="0"
       transform="translate(94.999999,451.21352)" />
    <path
       style="opacity:1;fill:#ffffff;fill-opacity:1;stroke:#000000;stroke-width:0;stroke-miterlimit:4;stroke-dasharray:none;stroke-opacity:1"
       d="m 280.44038,468.22303 c -0.10462,-8.27973 -0.22174,-28.98626 -0.26025,-46.0145 l -0.07,-30.96044 9.42809,-7.90154 c 27.64126,-23.16572 52.3805,-43.76362 52.56258,-43.76362 0.20669,0 -0.0154,43.12004 -0.38143,74.03785 l -0.19438,16.42174 -29.95917,26.2001 c -16.47754,14.41006 -30.17877,26.38784 -30.44718,26.61729 -0.44984,0.38456 -0.50287,-0.75997 -0.67823,-14.63688 z"
       id="path4171"
       inkscape:connector-curvature="0"
       transform="translate(94.999999,451.21352)" />
    <path
       style="opacity:1;fill:#ffffff;fill-opacity:1;stroke:#000000;stroke-width:0;stroke-miterlimit:4;stroke-dasharray:none;stroke-opacity:1"
       d="m 280.44099,469.42037 c -0.10414,-7.62133 -0.22119,-28.33546 -0.26012,-46.03141 l -0.0708,-32.17444 6.73435,-5.63722 c 35.87876,-30.03355 54.87146,-45.8638 55.14175,-45.9602 0.32589,-0.11621 0.18076,40.74689 -0.26762,75.35411 l -0.19537,15.07844 -29.9583,26.19587 c -16.47706,14.40773 -30.17796,26.38396 -30.44643,26.61384 -0.44994,0.38526 -0.50296,-0.66666 -0.67749,-13.43899 z"
       id="path4173"
       inkscape:connector-curvature="0"
       transform="translate(94.999999,451.21352)" />
    <path
       style="opacity:1;fill:#ffffff;fill-opacity:1;stroke:#000000;stroke-width:0;stroke-miterlimit:4;stroke-dasharray:none;stroke-opacity:1"
       d="m 280.45211,471.35836 c -0.10406,-6.5472 -0.26287,-27.25831 -0.3529,-46.0247 l -0.16371,-34.12071 4.01295,-3.29235 c 2.20712,-1.81079 16.09298,-13.39388 30.85748,-25.74019 14.76449,-12.3463 26.99334,-22.49993 27.17521,-22.56361 0.33784,-0.11828 0.17501,46.74475 -0.26715,76.88737 l -0.19976,13.61836 -29.58016,25.88983 c -16.26909,14.23941 -29.9655,26.19587 -30.43646,26.56992 l -0.85631,0.68008 -0.18919,-11.904 z"
       id="path4175"
       inkscape:connector-curvature="0"
       transform="translate(94.999999,451.21352)" />
    <path
       style="opacity:1;fill:#ffffff;fill-opacity:1;stroke:#000000;stroke-width:0;stroke-miterlimit:4;stroke-dasharray:none;stroke-opacity:1"
       d="m 131.28224,43.116706 c 27.9365,-4.131418 51.85532,-7.524094 53.15291,-7.539279 2.01233,-0.02355 49.47825,13.976588 50.48025,14.889213 0.19399,0.1767 -34.47267,0.285377 -77.03704,0.241504 l -77.389774,-0.07977 50.793654,-7.511669 z"
       id="path4179"
       inkscape:connector-curvature="0"
       transform="translate(94.999999,451.21352)" />
    <path
       style="opacity:1;fill:#ffffff;fill-opacity:1;stroke:#000000;stroke-width:0;stroke-miterlimit:4;stroke-dasharray:none;stroke-opacity:1"
       d="m 165.56795,17.895984 -18.20106,-5.62659 30.26455,-0.222333 c 16.64551,-0.122283 43.78887,-0.122283 60.3186,0 l 30.05404,0.222333 -39.57785,5.737737 c -21.76782,3.155755 -40.72071,5.68772 -42.11754,5.626589 -1.39682,-0.06113 -10.73016,-2.643112 -20.74074,-5.737736 z"
       id="path4181"
       inkscape:connector-curvature="0"
       transform="translate(94.999999,451.21352)" />
    <path
       style="opacity:1;fill:#ffffff;fill-opacity:1;stroke:#000000;stroke-width:0;stroke-miterlimit:4;stroke-dasharray:none;stroke-opacity:1"
       d="m 165.56795,17.91437 -18.20106,-5.644976 30.26455,-0.222333 c 16.64551,-0.122283 43.8836,-0.122283 60.5291,0 l 30.26455,0.222333 -39.78836,5.733307 c -21.88359,3.153319 -40.93121,5.693557 -42.32804,5.644976 -1.39682,-0.04858 -10.73016,-2.62857 -20.74074,-5.733307 z"
       id="path4183"
       inkscape:connector-curvature="0"
       transform="translate(94.999999,451.21352)" />
    <path
       style="opacity:1;fill:#ffffff;fill-opacity:1;stroke:#000000;stroke-width:0;stroke-miterlimit:4;stroke-dasharray:none;stroke-opacity:1"
       d="m 237.78348,39.933244 c -14.52485,-4.479358 -26.31132,-8.241785 -26.19215,-8.360949 0.40905,-0.409052 99.11025,-14.664001 99.84279,-14.419823 1.70122,0.567075 -43.12475,31.125525 -45.48895,31.010408 -0.96409,-0.04694 -13.63685,-3.75028 -28.16169,-8.229636 z"
       id="path4185"
       inkscape:connector-curvature="0"
       transform="translate(94.999999,451.21352)" />
    <path
       style="opacity:1;fill:#ffffff;fill-opacity:1;stroke:#000000;stroke-width:0;stroke-miterlimit:4;stroke-dasharray:none;stroke-opacity:1"
       d="m 237.7554,39.963142 c -14.54028,-4.46492 -26.31912,-8.235798 -26.17519,-8.379732 0.44013,-0.440124 99.01002,-14.712232 99.79727,-14.449819 1.77502,0.591675 -42.95218,31.148116 -45.42201,31.031113 -0.96975,-0.04594 -13.65978,-3.736644 -28.20007,-8.201562 z"
       id="path4187"
       inkscape:connector-curvature="0"
       transform="translate(94.999999,451.21352)" />
    <path
       style="opacity:1;fill:#ffffff;fill-opacity:1;stroke:#000000;stroke-width:0;stroke-miterlimit:4;stroke-dasharray:none;stroke-opacity:1"
       d="m 259.11292,46.502458 c -2.79365,-0.875232 -14.69047,-4.530956 -26.43739,-8.123831 -11.74692,-3.592875 -21.25065,-6.639886 -21.1194,-6.771135 0.52378,-0.52378 98.84675,-14.798774 99.78235,-14.486873 1.0828,0.360967 -3.9164,4.055818 -24.42849,18.054839 -10.72899,7.322286 -19.93851,13.038804 -20.9363,12.995552 -0.97977,-0.04247 -4.06711,-0.793321 -6.86077,-1.668552 z"
       id="path4189"
       inkscape:connector-curvature="0"
       transform="translate(94.999999,451.21352)" />
    <path
       style="opacity:1;fill:#ffffff;fill-opacity:1;stroke:#000000;stroke-width:0;stroke-miterlimit:4;stroke-dasharray:none;stroke-opacity:1"
       d="M 44.086469,42.119685 C 47.811337,40.080072 62.313145,32.434133 76.312711,25.128707 96.316527,14.690068 102.47931,11.839199 105.09578,11.813815 c 1.84971,-0.01794 14.9181,3.462142 29.40572,7.830688 21.13523,6.373042 25.62681,7.97987 23.7037,8.479822 -1.30498,0.33926 -27.70603,4.261151 -58.668995,8.715314 -30.962963,4.454163 -57.62963,8.298717 -59.25926,8.543454 -2.4674,0.370552 -1.830247,-0.175261 3.809524,-3.263408 z"
       id="path4191"
       inkscape:connector-curvature="0"
       transform="translate(94.999999,451.21352)" />
    <path
       style="opacity:1;fill:#ffffff;fill-opacity:1;stroke:#000000;stroke-width:0;stroke-miterlimit:4;stroke-dasharray:none;stroke-opacity:1"
       d="m 43.239908,42.461571 c 3.259259,-1.772739 17.765339,-9.386428 32.235733,-16.91931 20.609758,-10.728862 27.029049,-13.704147 29.629629,-13.733075 1.84894,-0.02057 14.8868,3.448897 29.42686,7.830688 21.40953,6.451974 25.6746,7.981346 23.70371,8.499686 -2.17196,0.571217 -118.722111,17.585331 -120.269593,17.55708 -0.358745,-0.0065 2.014402,-1.462329 5.273661,-3.235069 z"
       id="path4193"
       inkscape:connector-curvature="0"
       transform="translate(94.999999,451.21352)" />
    <path
       style="opacity:1;fill:#ffffff;fill-opacity:1;stroke:#000000;stroke-width:0;stroke-miterlimit:4;stroke-dasharray:none;stroke-opacity:1"
       d="M 41.970067,43.104766 C 44.530914,41.689555 59.033172,34.077409 74.197308,26.188885 97.335624,14.152118 102.35155,11.846114 105.39513,11.846114 c 3.29449,0 55.46019,15.153553 54.7186,15.895141 -0.16335,0.163343 -13.00296,2.164123 -28.5325,4.446176 -61.878988,9.093076 -92.480724,13.520392 -93.352344,13.505782 -0.503197,-0.0084 1.180334,-1.173236 3.741181,-2.588447 z"
       id="path4195"
       inkscape:connector-curvature="0"
       transform="translate(94.999999,451.21352)" />
    <path
       style="opacity:1;fill:#ffffff;fill-opacity:1;stroke:#000000;stroke-width:0;stroke-miterlimit:4;stroke-dasharray:none;stroke-opacity:1"
       d="m 37.737263,45.483447 c 0.541959,-0.565983 44.227493,-23.561105 55.645994,-29.290852 6.265161,-3.143825 9.635173,-4.346481 12.179453,-4.346481 2.90447,0 24.19275,6.013696 50.26979,14.200644 4.82084,1.513514 4.9501,1.623194 2.53968,2.154913 -2.00199,0.441626 -101.040266,14.970009 -117.248674,17.199753 -2.095238,0.288236 -3.619048,0.325146 -3.386243,0.08202 z"
       id="path4197"
       inkscape:connector-curvature="0"
       transform="translate(94.999999,451.21352)" />
    <path
       style="opacity:1;fill:#ffffff;fill-opacity:1;stroke:#000000;stroke-width:0;stroke-miterlimit:4;stroke-dasharray:none;stroke-opacity:1"
       d="m 11.493876,446.68442 0,-49.65312 127.407404,0 127.40741,0 0,48.54868 0,48.54869 -48.04233,0.54876 c -26.42328,0.30182 -83.75661,0.79882 -127.407404,1.10444 l -79.36508,0.55568 0,-49.65313 z"
       id="path4205"
       inkscape:connector-curvature="0"
       transform="translate(94.999999,451.21352)" />
    <path
       style="opacity:1;fill:#ffffff;fill-opacity:1;stroke:#000000;stroke-width:0;stroke-miterlimit:4;stroke-dasharray:none;stroke-opacity:1"
       d="m 11.493876,446.68773 0,-49.65643 127.407404,0 127.40741,0 0,48.54517 0,48.54518 -42.96296,0.5508 c -23.62963,0.30294 -80.96296,0.80301 -127.407409,1.11126 l -84.444445,0.56045 0,-49.65643 z"
       id="path4207"
       inkscape:connector-curvature="0"
       transform="translate(94.999999,451.21352)" />
    <path
       style="opacity:1;fill:#ffffff;fill-opacity:1;stroke:#000000;stroke-width:0;stroke-miterlimit:4;stroke-dasharray:none;stroke-opacity:1"
       d="m 280.41384,464.12125 c -0.30581,-10.12699 -0.55696,-30.64991 -0.5581,-45.6065 l -0.002,-27.19379 31.04617,-25.92229 c 17.07539,-14.25726 31.20932,-25.75914 31.40872,-25.55974 0.19941,0.1994 0.0802,20.61713 -0.26491,45.37273 l -0.62747,45.01018 -29.86207,26.15605 c -16.42413,14.38583 -30.02456,26.15606 -30.22316,26.15606 -0.1986,0 -0.6113,-8.28572 -0.91711,-18.4127 z"
       id="path4209"
       inkscape:connector-curvature="0"
       transform="translate(94.999999,451.21352)" />
    <path
       style="opacity:1;fill:#ffffff;fill-opacity:1;stroke:#000000;stroke-width:0;stroke-miterlimit:4;stroke-dasharray:none;stroke-opacity:1"
       d="m 280.41278,467.93077 c -0.30466,-8.03174 -0.5551,-28.5721 -0.55653,-45.64523 l -0.003,-31.04205 31.11111,-25.93103 31.11111,-25.93103 0.29723,2.79319 c 0.16348,1.53625 0.0225,21.96883 -0.31333,45.40573 l -0.61056,42.61253 -29.87859,26.17053 c -16.43323,14.3938 -30.04179,26.17054 -30.24125,26.17054 -0.19947,0 -0.61194,-6.57143 -0.91661,-14.60318 z"
       id="path4211"
       inkscape:connector-curvature="0"
       transform="translate(94.999999,451.21352)" />
    <path
       style="opacity:1;fill:#ffffff;fill-opacity:1;stroke:#000000;stroke-width:0;stroke-miterlimit:4;stroke-dasharray:none;stroke-opacity:1"
       d="m 278.62485,202.95723 c -0.3245,-62.97355 -0.46648,-120.924513 -0.31551,-128.779925 l 0.27448,-14.282566 31.32276,-19.400978 c 17.22751,-10.670538 32.04304,-19.809296 32.9234,-20.308352 1.56777,-0.888732 1.58736,1.420934 0.95388,112.413701 -0.35573,62.3266 -0.88555,119.59097 -1.17738,127.25418 l -0.53059,13.9331 -30.89947,21.78302 c -16.99471,11.98065 -31.13845,21.806 -31.43052,21.83409 -0.29208,0.0281 -0.79655,-51.47273 -1.12105,-114.44627 z"
       id="path4213"
       inkscape:connector-curvature="0"
       transform="translate(94.999999,451.21352)" />
    <path
       style="opacity:1;fill:#ffffff;fill-opacity:1;stroke:#000000;stroke-width:0;stroke-miterlimit:4;stroke-dasharray:none;stroke-opacity:1"
       d="M 278.62787,209.72971 C 278.30516,150.48104 278.16323,92.508942 278.31248,80.902838 l 0.27134,-21.102006 31.32276,-19.369627 c 17.22751,-10.653295 32.04597,-19.772491 32.9299,-20.26488 1.57642,-0.87813 1.59472,1.30469 0.95648,114.122435 -0.35787,63.25971 -0.89062,120.53874 -1.18388,127.2867 l -0.53319,12.26903 -30.89947,21.77017 c -16.99471,11.97359 -31.1385,21.78587 -31.43064,21.80504 -0.29215,0.0192 -0.79521,-48.44131 -1.11791,-107.68999 z"
       id="path4215"
       inkscape:connector-curvature="0"
       transform="translate(94.999999,451.21352)" />
    <path
       style="opacity:1;fill:#ffffff;fill-opacity:1;stroke:#000000;stroke-width:0;stroke-miterlimit:4;stroke-dasharray:none;stroke-opacity:1"
       d="m 278.62971,216.53814 c -0.32178,-55.54358 -0.46375,-113.53568 -0.31547,-128.871342 l 0.26958,-27.883019 30.21215,-18.677827 C 325.41265,30.833146 340.23481,21.704329 341.7341,20.819689 l 2.72598,-1.608435 -0.56713,112.931186 c -0.31192,62.11216 -0.8092,119.40738 -1.10507,127.32272 l -0.53794,14.39154 -30.81738,21.5873 c -16.94956,11.87301 -31.13247,21.69871 -31.51758,21.83488 -0.38511,0.13616 -0.96348,-45.19718 -1.28527,-100.74074 z"
       id="path4217"
       inkscape:connector-curvature="0"
       transform="translate(94.999999,451.21352)" />
    <path
       style="opacity:1;fill:#ffffff;fill-opacity:1;stroke:#000000;stroke-width:0;stroke-miterlimit:4;stroke-dasharray:none;stroke-opacity:1"
       d="M 278.63038,222.42813 C 278.30935,170.16357 278.16755,112.1742 278.31526,93.562844 l 0.26856,-33.838825 30.47619,-18.891092 c 16.76191,-10.3901 31.58479,-19.48966 32.93975,-20.221243 l 2.46355,-1.330153 -0.56942,115.859009 c -0.31318,63.72246 -0.80734,121.00582 -1.09813,127.29636 l -0.52871,11.43735 -31.07843,21.79017 c -17.09313,11.98459 -31.28006,21.79016 -31.52649,21.79016 -0.24644,0 -0.71073,-42.7619 -1.03175,-95.02645 z"
       id="path4219"
       inkscape:connector-curvature="0"
       transform="translate(94.999999,451.21352)" />
  </g>
</svg>
