<?xml version="1.0" encoding="UTF-8" standalone="no"?>
<svg
   xmlns:dc="http://purl.org/dc/elements/1.1/"
   xmlns:cc="http://creativecommons.org/ns#"
   xmlns:rdf="http://www.w3.org/1999/02/22-rdf-syntax-ns#"
   xmlns:svg="http://www.w3.org/2000/svg"
   xmlns="http://www.w3.org/2000/svg"
   xmlns:sodipodi="http://sodipodi.sourceforge.net/DTD/sodipodi-0.dtd"
   xmlns:inkscape="http://www.inkscape.org/namespaces/inkscape"
   id="svg2"
   version="1.1"
   inkscape:version="0.91 r13725"
   sodipodi:docname="Milk.svg"
   width="105.92321"
   height="173.25525">
  <metadata
     id="metadata17">
    <rdf:RDF>
      <cc:Work
         rdf:about="">
        <dc:format>image/svg+xml</dc:format>
        <dc:type
           rdf:resource="http://purl.org/dc/dcmitype/StillImage" />
        <dc:title />
      </cc:Work>
    </rdf:RDF>
  </metadata>
  <defs
     id="defs15" />
  <sodipodi:namedview
     pagecolor="#ffffff"
     bordercolor="#666666"
     borderopacity="1"
     objecttolerance="10"
     gridtolerance="10"
     guidetolerance="10"
     inkscape:pageopacity="0"
     inkscape:pageshadow="2"
     inkscape:window-width="1721"
     inkscape:window-height="984"
     id="namedview13"
     showgrid="false"
     fit-margin-top="0"
     fit-margin-left="0"
     fit-margin-right="0"
     fit-margin-bottom="0"
     inkscape:zoom="3.5674688"
     inkscape:cx="-77.562619"
     inkscape:cy="92.856168"
     inkscape:window-x="0"
     inkscape:window-y="30"
     inkscape:window-maximized="0"
     inkscape:current-layer="svg2" />
  <path
     style="fill:#3a2afc;fill-opacity:1;fill-rule:evenodd;stroke:#000000;stroke-width:1px;stroke-linecap:butt;stroke-linejoin:miter;stroke-opacity:1"
     d="m 2.3943203,125.0545 79.9999997,0.7143 21.42857,-14.99998 -0.35714,24.99998 -20,13.9286 -81.4285727,-0.7143 z"
     id="path4192"
     inkscape:connector-curvature="0" />
  <path
     style="opacity:1;fill:#ffffff;fill-opacity:1;stroke:#000000;stroke-width:2.46343994;stroke-miterlimit:4;stroke-dasharray:none;stroke-opacity:1"
     d="m 42.576037,172.39363 -40.7217701,-0.064 -0.027,-11.3003 c -0.0148,-6.2151 -0.004,-36.8982 0.0243,-68.184515 0.0491,-54.49914 0.0324,-56.88421 -0.40051,-56.88421 -0.35343,0 -0.28998,-0.13249 0.29136,-0.60846 0.40874,-0.33465 9.7208901,-8.0163 20.6936801,-17.07032 l 19.95051,-16.4618701 9.47018,0.15433 c 5.2086,0.0849 10.57819,0.22159 11.93243,0.30378 2.20294,0.13371 2.46224,0.10447 2.46224,-0.27765 0,-0.2349 0.10603,-0.38921 0.23562,-0.34291 0.12958,0.0463 8.7739,4.4025799 19.2096,9.6806301 l 18.973993,9.59645 -0.14097,5.17703 c -0.0775,2.84737 -0.21296,32.52551 -0.30093,65.95143 l -0.15996,60.774385 -10.069843,9.5486 c -5.53841,5.2517 -10.06984,9.6256 -10.06984,9.7198 0,0.094 -0.14205,0.2119 -0.31567,0.2615 -0.17362,0.05 -18.64047,0.061 -41.03745,0.026 z m 40.34297,-11.2955 0,-10.4755 -0.56821,-0.1151 c -0.31252,-0.063 -10.79601,-0.1793 -23.29664,-0.2577 -12.50064,-0.078 -30.31405,-0.2177 -39.58535,-0.3095 l -16.8569201,-0.167 0,10.9002 0,10.9002 40.1535601,0 40.15356,0 0,-10.4756 z m 12.723,-1.2675 7.719293,-7.3236 0.007,-7.9045 0.007,-7.9045 -2.20971,1.5474 c -1.215343,0.851 -5.589603,3.8967 -9.720583,6.7681 l -7.51086,5.2207 -0.002,10.3113 -0.002,10.3113 1.99678,-1.8513 c 1.09799,-1.0182 5.47022,-5.1469 9.71583,-9.1749 z m -12.4712,-21.7814 -7.6e-4,-11.5536 -13.19438,-0.073 c -7.25689,-0.04 -25.28492,-0.1851 -40.06227,-0.322 -14.77736,-0.1369 -26.9279001,-0.1889 -27.0012101,-0.1156 -0.19305,0.193 -0.51874,22.7023 -0.33135,22.9003 0.16139,0.1705 42.0575601,0.5927 66.7642501,0.6728 l 13.82646,0.045 -7.6e-4,-11.5536 2e-5,0 z m 20.043373,-13.8059 c 0.12011,-6.48436 0.15324,-11.85492 0.0736,-11.93454 -0.0796,-0.0796 -4.439473,2.86159 -9.688563,6.536 l -9.54382,6.68074 -0.0656,11.9018 -0.0656,11.9018 9.53578,-6.648 9.535783,-6.6479 0.21839,-11.7899 z m -20.598213,1.3179 c 0.2334,-0.2334 0.30304,-10.49895 0.30304,-44.669405 l 0,-44.36636 -11.42735,-0.15377 c -6.28504,-0.0846 -24.35415,-0.22391 -40.15356,-0.30962 l -28.7262101,-0.15585 0,44.56987 0,44.569835 16.2255701,0.1789 c 8.92407,0.098 25.08966,0.2638 35.92355,0.3676 10.83388,0.1038 21.46511,0.2074 23.62494,0.2303 2.76684,0.029 4.0165,-0.048 4.23002,-0.2615 z m 11.34342,-7.8939 9.354773,-6.55546 0.16795,-21.981355 c 0.0924,-12.08975 0.1912,-32.06838 0.21963,-44.39696 0.0434,-18.82032 -0.003,-22.39445 -0.29207,-22.28365 -0.36004,0.13822 -17.235543,11.62215 -18.659763,12.69814 l -0.82075,0.62007 0,44.42928 c 0,37.022915 0.0563,44.395635 0.33773,44.227335 0.18574,-0.1111 4.54737,-3.1519 9.6925,-6.7574 z M 82.666467,35.076035 c 0,-0.0699 -3.57385,-7.27406 -7.94189,-16.00927 l -7.94189,-15.8822101 -3.61173,-0.15058 c -1.98645,-0.0828 -7.41874,-0.21967 -12.07175,-0.3041 l -8.46003,-0.15351 -19.44036,16.0455801 c -10.69219,8.82507 -19.4805201,16.16609 -19.5296101,16.31337 -0.0626,0.18791 11.7038701,0.26777 39.4540001,0.26777 21.74879,0 39.54326,-0.0572 39.54326,-0.12705 z m 4.97007,-3.0664 c 8.90116,-6.39405 15.240783,-11.02475 15.176263,-11.08533 -0.23071,-0.21658 -34.596693,-17.5679601 -34.658683,-17.4991701 -0.13134,0.14577 15.34242,31.2728801 15.54623,31.2728801 0.10653,0 1.87781,-1.20978 3.93619,-2.68838 z"
     id="path4342"
     inkscape:connector-curvature="0" />
  <text
     xml:space="preserve"
     style="font-style:normal;font-weight:normal;font-size:28.16025352px;line-height:125%;font-family:sans-serif;letter-spacing:0px;word-spacing:0px;fill:#000000;fill-opacity:1;stroke:none;stroke-width:1px;stroke-linecap:butt;stroke-linejoin:miter;stroke-opacity:1;"
     x="7.7981858"
     y="92.913124"
     id="text4344"
     sodipodi:linespacing="125%"
     transform="scale(0.94331488,1.0600914)"><tspan
       sodipodi:role="line"
       id="tspan4346"
       x="7.7981858"
       y="92.913124">Mléko</tspan></text>
  <path
     style="opacity:1;fill:#ffffff;fill-opacity:1;stroke:#000000;stroke-width:0;stroke-miterlimit:4;stroke-dasharray:none;stroke-opacity:1"
     d="m 7.4345738,33.614659 c 0,-0.121186 8.8296322,-7.4908 26.1069982,-21.790091 l 9.529054,-7.8865449 8.223704,0.1516124 c 4.523038,0.083387 9.670831,0.2249131 11.439539,0.3145027 l 3.215833,0.1628902 7.292693,14.5835536 7.292689,14.583553 -36.550256,0 c -20.102639,0 -36.5502542,-0.05376 -36.5502542,-0.119476 z"
     id="path4144"
     inkscape:connector-curvature="0" />
  <path
     style="opacity:1;fill:#ffffff;fill-opacity:1;stroke:#000000;stroke-width:0;stroke-miterlimit:4;stroke-dasharray:none;stroke-opacity:1"
     d="M 7.5653868,33.472616 C 7.6542823,33.32878 13.094735,28.763432 19.655281,23.327398 26.215827,17.891364 34.16814,11.3015 37.327086,8.6832554 l 5.74354,-4.7604449 8.484774,0.1587396 c 4.666626,0.087307 9.814469,0.2323556 11.439651,0.3223307 l 2.954873,0.1635912 7.29258,14.583331 7.29258,14.583332 -36.565662,0 c -24.35256,0 -36.5116787,-0.08735 -36.4040352,-0.261519 z"
     id="path4146"
     inkscape:connector-curvature="0" />
  <path
     style="opacity:1;fill:#ffffff;fill-opacity:1;stroke:#000000;stroke-width:0;stroke-miterlimit:4;stroke-dasharray:none;stroke-opacity:1"
     d="m 7.4345738,33.617113 c 0,-0.161649 3.8090262,-3.35229 20.8855982,-17.494878 L 43.070626,3.9061071 51.81647,4.0742653 c 4.810215,0.092487 9.958113,0.2414038 11.439771,0.3309262 l 2.693929,0.1627679 7.292457,14.5830876 7.292457,14.583088 -36.550256,0 c -20.102639,0 -36.5502542,-0.05266 -36.5502542,-0.117022 z"
     id="path4148"
     inkscape:connector-curvature="0" />
  <path
     style="opacity:1;fill:#ffffff;fill-opacity:1;stroke:#000000;stroke-width:0;stroke-miterlimit:4;stroke-dasharray:none;stroke-opacity:1"
     d="M 7.5639698,33.474908 C 7.749584,33.174579 11.711586,29.862726 29.886592,14.815354 L 43.070626,3.9000841 52.208075,4.0738175 c 5.025597,0.095553 10.173955,0.2467524 11.440794,0.3359979 l 2.303345,0.1622644 7.222091,14.3852252 c 3.972151,7.911874 7.262881,14.473336 7.312735,14.581028 0.04985,0.107691 -16.373492,0.195802 -36.49632,0.195802 -24.151418,0 -36.5325071,-0.08811 -36.4267502,-0.259227 z"
     id="path4150"
     inkscape:connector-curvature="0" />
  <path
     style="opacity:1;fill:#ffffff;fill-opacity:1;stroke:#000000;stroke-width:0;stroke-miterlimit:4;stroke-dasharray:none;stroke-opacity:1"
     d="M 82.652935,29.744181 C 80.480773,25.672001 71.132716,6.5828574 71.31071,6.5828574 c 0.306688,0 28.80347,14.4350166 28.79945,14.5883276 -0.004,0.140374 -14.61745,10.789697 -15.54139,11.325304 -0.245631,0.142392 -0.785349,-0.632972 -1.915835,-2.752308 z"
     id="path4152"
     inkscape:connector-curvature="0" />
  <path
     style="opacity:1;fill:#ffffff;fill-opacity:1;stroke:#000000;stroke-width:0;stroke-miterlimit:4;stroke-dasharray:none;stroke-opacity:1"
     d="M 83.251588,30.93606 C 81.945578,28.604744 71.174188,6.7389698 71.275923,6.6256223 71.396849,6.4908922 100.11501,20.970388 100.11013,21.16363 c -0.004,0.153156 -13.410255,9.959241 -15.144989,11.07778 l -0.721629,0.4653 -0.991924,-1.77065 z"
     id="path4154"
     inkscape:connector-curvature="0" />
  <path
     style="opacity:1;fill:#ffffff;fill-opacity:1;stroke:#000000;stroke-width:0;stroke-miterlimit:4;stroke-dasharray:none;stroke-opacity:1"
     d="M 83.516338,31.459723 C 82.516863,29.757777 71.158053,6.7350406 71.264947,6.6278465 71.400077,6.4923354 100.11557,20.957702 100.10423,21.155575 c -0.006,0.09775 -0.504892,0.540895 -1.109543,0.984756 -3.012724,2.211574 -13.456198,9.732068 -14.056958,10.122616 l -0.687304,0.44681 -0.734087,-1.250034 z"
     id="path4156"
     inkscape:connector-curvature="0" />
  <path
     style="opacity:1;fill:#ffffff;fill-opacity:1;stroke:#000000;stroke-width:0;stroke-miterlimit:4;stroke-dasharray:none;stroke-opacity:1"
     d="M 83.681226,31.799116 C 82.884763,30.510412 71.151969,6.7405835 71.259333,6.6332199 c 0.08642,-0.086424 26.24482,12.9481961 28.004956,13.9547521 0.465754,0.266348 0.844371,0.54301 0.841371,0.614804 -0.003,0.07179 -1.206441,1.008027 -2.674315,2.080517 -6.056995,4.425492 -12.356267,8.950363 -12.765059,9.169351 -0.340704,0.182514 -0.557075,0.03897 -0.98506,-0.653528 z"
     id="path4158"
     inkscape:connector-curvature="0" />
  <path
     style="opacity:1;fill:#ffffff;fill-opacity:1;stroke:#000000;stroke-width:0;stroke-miterlimit:4;stroke-dasharray:none;stroke-opacity:1"
     d="M 83.971843,32.350985 C 83.582403,31.881737 71.134659,6.7578933 71.239611,6.6529422 71.449429,6.4431235 100.11442,20.843392 100.11442,21.158617 c 0,0.187053 -13.168121,9.836808 -15.045094,11.025224 -0.663421,0.420049 -0.862436,0.450357 -1.097483,0.167144 z"
     id="path4160"
     inkscape:connector-curvature="0" />
  <path
     style="opacity:1;fill:#ffffff;fill-opacity:1;stroke:#000000;stroke-width:0;stroke-miterlimit:4;stroke-dasharray:none;stroke-opacity:1"
     d="M 83.979438,32.360136 C 83.58856,31.889156 71.125689,6.7668634 71.230784,6.6617687 c 0.177229,-0.177229 3.530849,1.4550862 16.025936,7.8003413 7.071733,3.591168 12.8577,6.617112 12.8577,6.724322 0,0.182987 -13.277468,9.892609 -15.041892,10.99992 -0.654291,0.410617 -0.868298,0.444642 -1.09309,0.173784 z"
     id="path4162"
     inkscape:connector-curvature="0" />
  <path
     style="opacity:1;fill:#ffffff;fill-opacity:1;stroke:#000000;stroke-width:0;stroke-miterlimit:4;stroke-dasharray:none;stroke-opacity:1"
     d="m 85.403636,118.93287 c -0.09361,-1.53002 -0.170208,-20.71941 -0.170208,-42.643099 l 0,-39.861254 8.419506,-5.748879 8.419506,-5.74888 0.18198,1.725721 c 0.18896,1.791963 0.0535,44.976417 -0.21842,69.651804 l -0.15591,14.145667 -8.042414,5.63038 c -4.423327,3.09671 -8.092231,5.63039 -8.153121,5.63039 -0.06089,0 -0.187304,-1.25183 -0.280919,-2.78185 z"
     id="path4164"
     inkscape:connector-curvature="0" />
  <path
     style="opacity:1;fill:#ffffff;fill-opacity:1;stroke:#000000;stroke-width:0;stroke-miterlimit:4;stroke-dasharray:none;stroke-opacity:1"
     d="m 85.403056,119.32498 c -0.0933,-1.31435 -0.169628,-20.504363 -0.169628,-42.64446 l 0,-40.254726 4.764527,-3.262555 c 2.62049,-1.794404 6.422686,-4.394426 8.449325,-5.777825 l 3.6848,-2.515272 0.18186,2.006917 c 0.18354,2.02544 0.0117,45.502923 -0.27761,70.231304 l -0.15653,13.379327 -8.030334,5.61351 c -4.416685,3.08744 -8.085786,5.61352 -8.153559,5.61352 -0.06777,0 -0.199556,-1.07538 -0.292851,-2.38974 z"
     id="path4166"
     inkscape:connector-curvature="0" />
  <path
     style="opacity:1;fill:#ffffff;fill-opacity:1;stroke:#000000;stroke-width:0;stroke-miterlimit:4;stroke-dasharray:none;stroke-opacity:1"
     d="M 85.40301,119.72604 C 85.30974,118.62266 85.233428,99.427056 85.233428,77.069149 l 0,-40.650741 6.853086,-4.695157 c 3.769198,-2.582336 7.574365,-5.179044 8.455926,-5.770463 l 1.60284,-1.075306 0.18715,1.49129 c 0.19033,1.516586 -0.003,48.581776 -0.29321,71.536878 l -0.15966,12.61019 -7.93804,5.53417 c -4.365924,3.0438 -8.034993,5.56748 -8.153486,5.60818 -0.118493,0.0407 -0.291754,-0.82876 -0.385024,-1.93215 z"
     id="path4168"
     inkscape:connector-curvature="0" />
  <path
     style="opacity:1;fill:#ffffff;fill-opacity:1;stroke:#000000;stroke-width:0;stroke-miterlimit:4;stroke-dasharray:none;stroke-opacity:1"
     d="m 85.401154,120.11 c -0.09225,-0.88259 -0.167726,-20.0789 -0.167726,-42.658467 l 0,-41.053754 6.592017,-4.508732 c 3.625609,-2.479802 7.414387,-5.073617 8.419505,-5.764032 l 1.82749,-1.255301 0.201,0.842499 c 0.21565,0.903874 -0.0337,64.99254 -0.30119,77.404967 l -0.16088,7.46602 -7.962633,5.55899 c -4.379449,3.05744 -8.03401,5.56203 -8.121246,5.56576 -0.08724,0.004 -0.234088,-0.71535 -0.326337,-1.59795 z"
     id="path4170"
     inkscape:connector-curvature="0" />
  <path
     style="opacity:1;fill:#ffffff;fill-opacity:1;stroke:#000000;stroke-width:0;stroke-miterlimit:4;stroke-dasharray:none;stroke-opacity:1"
     d="m 85.373601,119.82196 c -0.09099,-1.04102 -0.130389,-20.265494 -0.08754,-42.721062 l 0.0779,-40.828308 8.354239,-5.70476 8.35424,-5.70476 0.20235,0.84582 c 0.21839,0.912825 -0.0375,66.950763 -0.30257,78.09846 l -0.16085,6.76373 -4.96033,3.48584 c -6.358845,4.46864 -11.015506,7.6578 -11.181543,7.6578 -0.07175,0 -0.204903,-0.85174 -0.295898,-1.89276 z"
     id="path4172"
     inkscape:connector-curvature="0" />
  <path
     style="opacity:1;fill:#ffffff;fill-opacity:1;stroke:#000000;stroke-width:0;stroke-miterlimit:4;stroke-dasharray:none;stroke-opacity:1"
     d="m 85.233428,159.38686 0,-8.38709 8.027901,-5.58565 c 4.415346,-3.07211 8.174751,-5.67381 8.354241,-5.78155 0.25744,-0.15455 0.32634,1.12478 0.32634,6.05973 l 0,6.25564 -7.114161,6.72913 c -3.912786,3.70102 -7.672194,7.26188 -8.354239,7.913 l -1.240082,1.18387 0,-8.38708 z"
     id="path4174"
     inkscape:connector-curvature="0" />
  <path
     style="opacity:1;fill:#ffffff;fill-opacity:1;stroke:#000000;stroke-width:0;stroke-miterlimit:4;stroke-dasharray:none;stroke-opacity:1"
     d="m 85.295004,159.33329 0.06896,-8.44293 7.832099,-5.46544 c 4.307655,-3.00599 8.037687,-5.58028 8.288967,-5.72063 0.42951,-0.2399 0.45688,0.11954 0.45688,6.00058 l 0,6.25577 -7.37523,6.98387 c -4.056375,3.84113 -7.817443,7.39963 -8.35793,7.90778 l -0.982704,0.92392 0.06896,-8.44292 z"
     id="path4176"
     inkscape:connector-curvature="0" />
  <path
     style="opacity:1;fill:#ffffff;fill-opacity:1;stroke:#000000;stroke-width:0;stroke-miterlimit:4;stroke-dasharray:none;stroke-opacity:1"
     d="m 85.295036,159.29523 0.06893,-8.43238 7.832099,-5.45334 c 4.307655,-2.99933 8.037685,-5.56742 8.288965,-5.70687 0.42979,-0.23851 0.45558,0.12228 0.43508,6.0866 l -0.0218,6.34013 -6.638796,6.26568 c -3.651338,3.44612 -7.402583,6.95573 -8.336099,7.79912 l -1.697303,1.53344 0.06893,-8.43238 z"
     id="path4178"
     inkscape:connector-curvature="0" />
  <path
     style="opacity:1;fill:#ffffff;fill-opacity:1;stroke:#000000;stroke-width:0;stroke-miterlimit:4;stroke-dasharray:none;stroke-opacity:1"
     d="m 85.295043,159.28682 0.06892,-8.42951 7.832099,-5.45535 c 4.307655,-3.00044 8.037688,-5.56728 8.288968,-5.7041 0.42953,-0.23387 0.45626,0.13072 0.44655,6.09138 l -0.0103,6.34013 -7.054625,6.65729 c -3.880041,3.6615 -7.636443,7.16857 -8.347561,7.79348 l -1.29294,1.1362 0.06892,-8.42952 z"
     id="path4180"
     inkscape:connector-curvature="0" />
  <path
     style="opacity:1;fill:#ffffff;fill-opacity:1;stroke:#000000;stroke-width:0;stroke-miterlimit:4;stroke-dasharray:none;stroke-opacity:1"
     d="m 4.0406641,160.70517 0,-9.56857 19.2539109,0.16905 c 10.589651,0.093 28.035652,0.24589 38.768892,0.33981 l 19.514981,0.17077 0,9.22875 0,9.22875 -38.768892,0 -38.7688919,0 0,-9.56856 z"
     id="path4182"
     inkscape:connector-curvature="0" />
  <path
     style="opacity:1;fill:#ffffff;fill-opacity:1;stroke:#000000;stroke-width:0;stroke-miterlimit:4;stroke-dasharray:none;stroke-opacity:1"
     d="m 4.0406641,160.70373 0,-9.57 20.4287259,0.1721 c 11.235799,0.0947 28.681801,0.24895 38.768892,0.34288 l 18.340166,0.17078 0,9.22712 0,9.22712 -38.768892,0 -38.7688919,0 0,-9.57 z"
     id="path4184"
     inkscape:connector-curvature="0" />
  <path
     style="opacity:1;fill:#ffffff;fill-opacity:1;stroke:#000000;stroke-width:0;stroke-miterlimit:4;stroke-dasharray:none;stroke-opacity:1"
     d="m 4.0406641,160.70458 0,-9.56916 21.6035409,0.17149 c 11.881947,0.0943 29.327949,0.24788 38.768892,0.34123 l 17.165351,0.16974 0,9.22793 0,9.22792 -38.768892,0 -38.7688919,0 0,-9.56915 z"
     id="path4186"
     inkscape:connector-curvature="0" />
  <path
     style="opacity:1;fill:#ffffff;fill-opacity:1;stroke:#000000;stroke-width:0;stroke-miterlimit:4;stroke-dasharray:none;stroke-opacity:1"
     d="m 4.0406641,160.70475 0,-9.56899 23.3004959,0.17137 c 12.815272,0.0942 30.261274,0.24758 38.768892,0.34074 l 15.468396,0.16938 0,9.22824 0,9.22824 -38.768892,0 -38.7688919,0 0,-9.56898 z"
     id="path4188"
     inkscape:connector-curvature="0" />
  <path
     style="opacity:1;fill:#ffffff;fill-opacity:1;stroke:#000000;stroke-width:0;stroke-miterlimit:4;stroke-dasharray:none;stroke-opacity:1"
     d="m 85.37474,120.1022 c -0.09098,-0.90797 -0.130627,-20.142663 -0.0881,-42.74376 l 0.07732,-41.092901 8.354239,-5.716068 8.354241,-5.716067 0.24457,1.111779 c 0.15248,0.693165 0.141,16.778471 -0.0305,42.720353 -0.26586,40.216934 -0.2915,41.624134 -0.76671,42.073774 -0.58365,0.55225 -15.186946,10.70956 -15.656097,10.88959 -0.226765,0.087 -0.373038,-0.36968 -0.488976,-1.5267 z"
     id="path4197"
     inkscape:connector-curvature="0" />
  <path
     style="opacity:1;fill:#ffffff;fill-opacity:1;stroke:#000000;stroke-width:0;stroke-miterlimit:4;stroke-dasharray:none;stroke-opacity:1"
     d="m 85.373933,120.36388 c -0.08969,-0.76472 -0.128629,-20.00316 -0.08652,-42.752105 l 0.07655,-41.361708 8.347617,-5.705293 c 7.08028,-4.839115 8.37556,-5.634544 8.53169,-5.239283 0.25888,0.655377 0.24376,27.327179 -0.0332,58.530213 -0.22236,25.054616 -0.26036,26.498976 -0.70845,26.926646 -0.58942,0.56256 -15.118149,10.66709 -15.607728,10.85496 -0.26345,0.10109 -0.399616,-0.22713 -0.519989,-1.25343 z"
     id="path4199"
     inkscape:connector-curvature="0" />
  <path
     style="opacity:1;fill:#ffffff;fill-opacity:1;stroke:#000000;stroke-width:0;stroke-miterlimit:4;stroke-dasharray:none;stroke-opacity:1"
     d="m 85.373933,120.36388 c -0.08969,-0.76472 -0.128629,-20.0074 -0.08652,-42.761519 l 0.07655,-41.371123 8.344788,-5.696712 c 7.981209,-5.448507 8.354969,-5.670684 8.578459,-5.099333 0.24587,0.628575 -0.0307,70.686926 -0.3156,79.951747 l -0.16024,5.2105 -2.610699,1.85337 c -5.132201,3.64341 -12.951229,9.03007 -13.304275,9.16555 -0.266566,0.10229 -0.401505,-0.22119 -0.522463,-1.25248 z"
     id="path4201"
     inkscape:connector-curvature="0" />
  <path
     style="opacity:1;fill:#ffffff;fill-opacity:1;stroke:#000000;stroke-width:0;stroke-miterlimit:4;stroke-dasharray:none;stroke-opacity:1"
     d="m 68.806773,95.976726 c -1.189079,-1.000544 -1.683135,-2.968642 -1.530194,-6.095614 0.193302,-3.952213 1.265791,-5.399917 3.948642,-5.330097 2.388657,0.06216 3.362572,2.021694 3.224621,6.487981 -0.09635,3.119387 -0.414477,4.098129 -1.64723,5.067813 -1.034103,0.813425 -2.948614,0.751099 -3.995839,-0.130083 z"
     id="path4203"
     inkscape:connector-curvature="0" />
  <path
     style="opacity:1;fill:#ffffff;fill-opacity:1;stroke:#000000;stroke-width:0;stroke-miterlimit:4;stroke-dasharray:none;stroke-opacity:1"
     d="m 68.806773,95.976726 c -1.187986,-0.999624 -1.682681,-2.968157 -1.532044,-6.096439 0.189023,-3.925429 1.158028,-5.336149 3.666146,-5.337332 2.658234,-0.0013 3.652782,1.83992 3.508967,6.496041 -0.09635,3.119387 -0.414477,4.098129 -1.64723,5.067813 -1.034103,0.813425 -2.948614,0.751099 -3.995839,-0.130083 z"
     id="path4205"
     inkscape:connector-curvature="0" />
  <path
     style="opacity:1;fill:#ffffff;fill-opacity:1;stroke:#000000;stroke-width:0;stroke-miterlimit:4;stroke-dasharray:none;stroke-opacity:1"
     d="m 39.285111,88.28736 c 0,-1.049173 0.885073,-2.745015 1.717206,-3.29025 0.393048,-0.257535 1.156335,-0.429108 1.861569,-0.418446 1.935028,0.02925 3.098954,1.22253 3.402915,3.488728 l 0.135949,1.013579 -3.558819,0 -3.55882,0 0,-0.793611 z"
     id="path4207"
     inkscape:connector-curvature="0" />
  <path
     style="opacity:1;fill:#ffffff;fill-opacity:1;stroke:#000000;stroke-width:0;stroke-miterlimit:4;stroke-dasharray:none;stroke-opacity:1"
     d="m 39.285111,88.28736 c 0,-1.049173 0.885073,-2.745015 1.717206,-3.29025 0.393048,-0.257535 1.156335,-0.429108 1.861569,-0.418446 1.935028,0.02925 3.098954,1.22253 3.402915,3.488728 l 0.135949,1.013579 -3.558819,0 -3.55882,0 0,-0.793611 z"
     id="path4209"
     inkscape:connector-curvature="0" />
  <path
     style="opacity:1;fill:#ffffff;fill-opacity:1;stroke:#000000;stroke-width:0;stroke-miterlimit:4;stroke-dasharray:none;stroke-opacity:1"
     d="M 40.139881,124.14011 C 26.72701,124.01426 13.072371,123.83246 9.7962383,123.73612 l -5.9566042,-0.17517 0,-43.174715 0,-43.174715 26.6996029,0.179416 c 14.684781,0.09868 32.155151,0.258749 38.823044,0.355711 l 12.123441,0.176296 0,43.270497 0,43.2705 -8.479401,-0.0475 c -4.663671,-0.0261 -19.453569,-0.15047 -32.86644,-0.27632 z m 5.076117,-25.598331 c 1.364172,-0.405116 2.53052,-1.358131 3.1588,-2.581037 0.478561,-0.931487 0.401907,-1.070613 -0.760853,-1.380973 -1.019418,-0.272098 -1.099362,-0.245317 -1.535358,0.514361 -1.036962,1.806802 -4.164257,2.104344 -5.571017,0.530046 -0.754655,-0.844535 -1.344281,-2.422839 -1.347213,-3.606213 -0.0017,-0.630009 0.0038,-0.630699 4.887331,-0.630699 2.931743,0 4.95772,-0.111356 5.060812,-0.278164 0.09455,-0.15299 0.03663,-1.250785 -0.128707,-2.439547 -0.595616,-4.28233 -2.514374,-6.252234 -6.089895,-6.252234 -2.252129,0 -3.364582,0.463769 -4.614123,1.923577 -1.619036,1.891478 -2.251711,5.180628 -1.65771,8.618118 0.830505,4.806167 4.088806,6.92183 8.597933,5.582765 z M 73.72002,98.364345 c 2.432428,-1.24773 3.423853,-3.517785 3.414446,-7.818013 -0.0077,-3.526473 -0.397032,-4.995206 -1.708999,-6.447398 -1.244835,-1.377884 -2.430754,-1.767076 -4.990614,-1.637808 -3.604614,0.182022 -5.243328,1.942049 -5.818938,6.249705 -0.667613,4.996165 1.031396,8.961245 4.255822,9.932076 1.139721,0.343156 3.951162,0.181622 4.848283,-0.278562 z m -61.733918,-7.747936 0.01745,-8.058935 2.20048,6.447148 c 3.615828,10.593954 3.141888,9.518693 4.236796,9.612323 l 0.95605,0.08176 2.729934,-8.070616 2.729935,-8.070613 0.0031,8.058935 0.0031,8.058936 1.261399,0 1.261398,0 0,-10.384876 0,-10.384873 -1.733527,0.08345 -1.733528,0.08345 -2.706864,8.159017 -2.706864,8.15902 -2.777504,-8.229098 -2.777505,-8.229095 -1.752049,0 -1.7520491,0 0,10.371499 0,10.3715 1.2613981,0 1.261399,0 0.01745,-8.058936 z m 21.846786,-2.873185 0,-10.932121 -1.261398,0 -1.261399,0 0,10.932121 0,10.932121 1.261399,0 1.261398,0 0,-10.932121 z m 20.742999,8.037718 c 0,-2.723707 0.04126,-2.933163 0.699672,-3.551708 0.384819,-0.361517 0.750821,-0.604252 0.813336,-0.539405 0.06252,0.06485 1.133263,1.663115 2.379438,3.551708 l 2.265769,3.433808 1.435855,0 c 1.137336,0 1.403516,-0.08427 1.280311,-0.405338 -0.08555,-0.222937 -1.411597,-2.283415 -2.946778,-4.578838 l -2.791237,-4.173499 2.776635,-3.305809 c 1.527148,-1.818194 2.776633,-3.352705 2.776633,-3.41002 0,-0.05732 -0.662234,-0.103135 -1.471632,-0.101817 l -1.471631,0.0025 -2.803108,3.486399 -2.803108,3.486399 -0.07524,-6.432059 -0.07524,-6.432182 -1.396387,0 -1.396388,0 0,10.932121 0,10.932121 1.401554,0 1.401554,0 0,-2.894403 z M 44.688338,78.990528 c 1.121367,-1.113882 2.038847,-2.186071 2.038847,-2.382642 0,-0.24172 -0.450894,-0.357404 -1.393013,-0.357404 l -1.39301,0 -1.410098,2.089672 c -0.775553,1.149319 -1.410095,2.221508 -1.410095,2.382641 0,0.161134 0.343919,0.29297 0.764262,0.29297 0.573493,0 1.273185,-0.505524 2.803107,-2.025237 z"
     id="path4167"
     inkscape:connector-curvature="0" />
  <path
     style="opacity:1;fill:#ffffff;fill-opacity:1;stroke:#000000;stroke-width:0;stroke-miterlimit:4;stroke-dasharray:none;stroke-opacity:1"
     d="m 39.164949,88.514079 c 0.0099,-1.018215 1.008469,-2.930559 1.801511,-3.45018 0.403371,-0.264298 1.243798,-0.480542 1.867618,-0.480542 1.86987,0 3.158593,1.310472 3.528132,3.587676 l 0.158017,0.973745 -3.680717,0 c -3.63199,0 -3.680635,-0.0084 -3.674561,-0.630699 z"
     id="path4169"
     inkscape:connector-curvature="0" />
  <path
     style="opacity:1;fill:#ffffff;fill-opacity:1;stroke:#000000;stroke-width:0;stroke-miterlimit:4;stroke-dasharray:none;stroke-opacity:1"
     d="M 69.201207,96.361717 C 67.023995,95.314208 66.450526,88.069916 68.353324,85.6509 c 1.305907,-1.660192 4.330533,-1.430692 5.409518,0.410459 0.496744,0.847631 0.574955,1.457721 0.574955,4.484973 0,2.82101 -0.09653,3.680507 -0.495289,4.41015 -0.848625,1.55279 -2.988197,2.200583 -4.641301,1.405235 z"
     id="path4171"
     inkscape:connector-curvature="0" />
</svg>
