<?xml version="1.0" encoding="UTF-8" standalone="no"?>
<!-- Created with Inkscape (http://www.inkscape.org/) -->

<svg
   xmlns:dc="http://purl.org/dc/elements/1.1/"
   xmlns:cc="http://creativecommons.org/ns#"
   xmlns:rdf="http://www.w3.org/1999/02/22-rdf-syntax-ns#"
   xmlns:svg="http://www.w3.org/2000/svg"
   xmlns="http://www.w3.org/2000/svg"
   xmlns:sodipodi="http://sodipodi.sourceforge.net/DTD/sodipodi-0.dtd"
   xmlns:inkscape="http://www.inkscape.org/namespaces/inkscape"
   width="92.205322mm"
   height="194.15379mm"
   viewBox="0 0 326.71177 687.94651"
   id="svg2"
   version="1.1"
   inkscape:version="0.91 r13725"
   sodipodi:docname="Salt.svg">
  <defs
     id="defs4" />
  <sodipodi:namedview
     id="base"
     pagecolor="#ffffff"
     bordercolor="#666666"
     borderopacity="1.0"
     inkscape:pageopacity="0.0"
     inkscape:pageshadow="2"
     inkscape:zoom="0.83526989"
     inkscape:cx="-251.12787"
     inkscape:cy="409.15422"
     inkscape:document-units="px"
     inkscape:current-layer="layer1"
     showgrid="false"
     showguides="true"
     inkscape:guide-bbox="true"
     fit-margin-top="0"
     fit-margin-left="0"
     fit-margin-right="0"
     fit-margin-bottom="0"
     inkscape:window-width="1920"
     inkscape:window-height="1017"
     inkscape:window-x="0"
     inkscape:window-y="30"
     inkscape:window-maximized="1" />
  <metadata
     id="metadata7">
    <rdf:RDF>
      <cc:Work
         rdf:about="">
        <dc:format>image/svg+xml</dc:format>
        <dc:type
           rdf:resource="http://purl.org/dc/dcmitype/StillImage" />
        <dc:title />
      </cc:Work>
    </rdf:RDF>
  </metadata>
  <g
     inkscape:label="Layer 1"
     inkscape:groupmode="layer"
     id="layer1"
     transform="translate(-139.34421,-203.70143)">
    <path
       style="fill:none;fill-rule:evenodd;stroke:#000000;stroke-width:10;stroke-linecap:butt;stroke-linejoin:miter;stroke-miterlimit:4;stroke-dasharray:none;stroke-opacity:1"
       d="m 158.67296,435.70956 c -27.2609,78.1576 -7.24439,390.93836 -7.24439,390.93836 l 62.85714,60 180,0 57.14286,-74.28572 c 0,0 23.74392,-302.25463 -3.34735,-377.66279 -27.09127,-75.40816 -35.21166,-66.20629 -74.63234,-85.54098 -39.42068,-19.33469 -111.55152,-19.06974 -151.42857,0 -39.87705,19.06974 -36.08645,8.39353 -63.34735,86.55113 z"
       id="path4136"
       inkscape:connector-curvature="0"
       sodipodi:nodetypes="zcccczzzz" />
    <path
       style="fill:none;fill-rule:evenodd;stroke:#000000;stroke-width:10;stroke-linecap:butt;stroke-linejoin:miter;stroke-miterlimit:4;stroke-dasharray:none;stroke-opacity:1"
       d="m 227.28432,347.27572 0,-41.41625 -31.31473,-16.16244 -5.05076,-18.18275 217.1828,0 -10.10153,17.1726 -34.34519,16.16244 1.01016,40.4061 c -39.61713,-10.29409 -81.78027,-14.32453 -137.38075,2.0203 z"
       id="path4144"
       inkscape:connector-curvature="0"
       sodipodi:nodetypes="ccccccccc" />
    <path
       style="fill:none;fill-rule:evenodd;stroke:#000000;stroke-width:9.84862423;stroke-linecap:butt;stroke-linejoin:miter;stroke-miterlimit:4;stroke-dasharray:none;stroke-opacity:1"
       d="m 196.68845,263.57041 c 0,0 37.5429,-35.8382 54.5946,-44.67003 17.05168,-8.83182 35.49678,-10.83316 52.64477,-10.15227 17.14799,0.68088 28.99341,4.85452 47.77027,13.19796 18.77684,8.34345 52.64477,41.62434 52.64477,41.62434 z"
       id="path4150"
       inkscape:connector-curvature="0"
       sodipodi:nodetypes="czzzcc" />
    <path
       style="fill:none;fill-rule:evenodd;stroke:#000000;stroke-width:10;stroke-linecap:butt;stroke-linejoin:miter;stroke-miterlimit:4;stroke-dasharray:none;stroke-opacity:1"
       d="m 192.93914,365.45847 0,500.02551 z"
       id="path4152"
       inkscape:connector-curvature="0" />
    <path
       style="fill:none;fill-rule:evenodd;stroke:#000000;stroke-width:10;stroke-linecap:butt;stroke-linejoin:miter;stroke-miterlimit:4;stroke-dasharray:none;stroke-opacity:1"
       d="m 255.56859,339.19451 0,545.48237"
       id="path4154"
       inkscape:connector-curvature="0" />
    <path
       style="fill:none;fill-rule:evenodd;stroke:#000000;stroke-width:10;stroke-linecap:butt;stroke-linejoin:miter;stroke-miterlimit:4;stroke-dasharray:none;stroke-opacity:1"
       d="m 319.20821,335.1539 0,549.52298"
       id="path4156"
       inkscape:connector-curvature="0" />
    <path
       style="fill:none;fill-rule:evenodd;stroke:#000000;stroke-width:10;stroke-linecap:butt;stroke-linejoin:miter;stroke-miterlimit:4;stroke-dasharray:none;stroke-opacity:1"
       d="m 390.92904,359.39756 0,524.26917"
       id="path4158"
       inkscape:connector-curvature="0" />
    <path
       style="opacity:1;fill:#000000;fill-opacity:1;stroke:#000000;stroke-width:10.29921913;stroke-miterlimit:4;stroke-dasharray:none;stroke-opacity:1"
       id="path4160"
       sodipodi:type="arc"
       sodipodi:cx="267.04529"
       sodipodi:cy="232.56213"
       sodipodi:rx="2.8222005"
       sodipodi:ry="2.7941906"
       sodipodi:start="0"
       sodipodi:end="6.2800088"
       sodipodi:open="true"
       d="m 269.86749,232.56213 a 2.8222005,2.7941906 0 0 1 -2.81996,2.79419 2.8222005,2.7941906 0 0 1 -2.82444,-2.78975 2.8222005,2.7941906 0 0 1 2.81547,-2.79862 2.8222005,2.7941906 0 0 1 2.82891,2.78531" />
    <path
       style="opacity:1;fill:#000000;fill-opacity:1;stroke:#000000;stroke-width:10;stroke-miterlimit:4;stroke-dasharray:none;stroke-opacity:1"
       id="path4162"
       sodipodi:type="arc"
       sodipodi:cx="295.52563"
       sodipodi:cy="231.58261"
       sodipodi:rx="3.5355339"
       sodipodi:ry="3.2703052"
       sodipodi:start="0"
       sodipodi:end="6.2800088"
       sodipodi:open="true"
       d="m 299.06117,231.58261 a 3.5355339,3.2703052 0 0 1 -3.53273,3.27031 3.5355339,3.2703052 0 0 1 -3.53833,-3.26511 3.5355339,3.2703052 0 0 1 3.5271,-3.27549 3.5355339,3.2703052 0 0 1 3.54394,3.2599" />
    <path
       style="opacity:1;fill:#000000;fill-opacity:1;stroke:#000000;stroke-width:9.71598625;stroke-miterlimit:4;stroke-dasharray:none;stroke-opacity:1"
       id="path4164"
       sodipodi:type="arc"
       sodipodi:cx="324.97064"
       sodipodi:cy="231.55199"
       sodipodi:rx="4.0626931"
       sodipodi:ry="2.6673882"
       sodipodi:start="0"
       sodipodi:end="6.2800088"
       sodipodi:open="true"
       d="m 329.03334,231.55199 a 4.0626931,2.6673882 0 0 1 -4.05947,2.66738 4.0626931,2.6673882 0 0 1 -4.06592,-2.66315 4.0626931,2.6673882 0 0 1 4.05301,-2.67161 4.0626931,2.6673882 0 0 1 4.07235,2.6589" />
    <path
       style="fill:none;fill-rule:evenodd;stroke:#000000;stroke-width:10.32406425;stroke-linecap:butt;stroke-linejoin:miter;stroke-miterlimit:4;stroke-dasharray:none;stroke-opacity:1"
       d="m 148.61664,729.68363 c 3.39568,0 6.79135,0 10.18701,0 0.4851,0 1.02141,0.22282 1.4553,0 0.61359,-0.31511 0.84168,-1.17959 1.45528,-1.49471 0.78948,-0.40542 5.42294,0.40899 5.82114,0 0.34302,-0.3523 -0.343,-1.14239 0,-1.4947 0.45064,-0.46283 6.82582,0.46283 7.27644,0 0.34302,-0.35231 -0.34301,-1.1424 0,-1.49471 0.72765,-0.74736 3.63822,0.74735 4.36586,0 0.34302,-0.35231 -0.34301,-1.14241 0,-1.49471 0.68603,-0.70462 2.22455,0.70461 2.91058,0 0.34301,-0.35231 -0.34302,-1.14241 0,-1.49471 0.68602,-0.70461 2.22455,0.70461 2.91057,0 0.34302,-0.3523 -0.34302,-1.14241 0,-1.49471 0.68604,-0.70461 2.22455,0.70461 2.91057,0 0.34302,-0.3523 -0.343,-1.1424 0,-1.49471 0.34302,-0.3523 1.02141,0.22282 1.45529,0 0.6136,-0.31511 0.84169,-1.1796 1.45529,-1.49471 0.43388,-0.22282 1.0214,0.22282 1.45529,0 0.6136,-0.31511 0.84168,-1.17959 1.45528,-1.49471 0.43389,-0.22282 1.11227,0.35231 1.45529,0 0.34302,-0.35231 -0.34302,-1.1424 0,-1.4947 0.34302,-0.35231 1.0214,0.22281 1.45529,0 0.6136,-0.31512 0.84168,-1.1796 1.45528,-1.49471 0.43389,-0.22282 1.11228,0.3523 1.45529,0 0.34301,-0.35231 -0.34301,-1.14241 0,-1.49471 0.68603,-0.70462 2.22454,0.70461 2.91058,0 0.343,-0.35231 -0.34302,-1.14241 0,-1.49472 0.343,-0.3523 1.0214,0.22282 1.45528,0 0.61361,-0.3151 0.84168,-1.17959 1.45529,-1.49471 0.43388,-0.22282 1.11227,0.35231 1.45528,0 0.34302,-0.35229 -0.34301,-1.1424 0,-1.4947 0.68604,-0.70461 2.22455,0.70461 2.91058,0 0.34301,-0.35231 0,-0.99648 0,-1.49471 0.48509,0 1.11227,0.35231 1.45529,0 0.34301,-0.35231 -0.34302,-1.1424 0,-1.49471 0.34301,-0.35231 1.0214,0.22282 1.45529,0 0.6136,-0.31511 0.84168,-1.17959 1.45528,-1.49471 0.43389,-0.22282 1.11227,0.3523 1.45529,0 0.34301,-0.35231 -0.34302,-1.14241 0,-1.4947 0.34301,-0.35231 1.11227,0.35229 1.45528,0 0.68604,-0.70462 -0.68602,-2.28481 0,-2.98943 0.34302,-0.3523 1.11228,0.35231 1.45529,0 0.34302,-0.3523 -0.34301,-1.1424 0,-1.49471 0.34302,-0.35231 1.11228,0.35231 1.45528,0 0.34302,-0.35231 -0.343,-1.1424 0,-1.49471 0.34302,-0.35231 1.11228,0.35231 1.4553,0 0.34301,-0.35231 -0.34302,-1.14239 0,-1.4947 0.68602,-0.70462 2.22454,0.7046 2.91057,0 0.34302,-0.35231 -0.34302,-1.14241 0,-1.49471 0.34302,-0.35231 1.11227,0.3523 1.45529,0 0,-3.9859 -0.4851,0.49823 1.45528,-1.49471 0.34302,-0.35231 -0.34302,-1.14241 0,-1.49472 0.34302,-0.3523 1.11228,0.35231 1.45529,0 0.34301,-0.3523 -0.34301,-1.1424 0,-1.49471 0.68603,-0.7046 2.22454,0.70462 2.91058,0 0.34301,-0.35229 -0.34302,-1.14239 0,-1.4947 0.34301,-0.35231 1.11227,0.35231 1.45528,0 0.34301,-0.35231 -0.34301,-1.1424 0,-1.49471 0.34301,-0.35231 1.11227,0.35231 1.45529,0 0.34302,-0.35231 -0.34302,-1.1424 0,-1.49471 0.34302,-0.35231 1.11227,0.35231 1.45528,0 0.34302,-0.35231 -0.34301,-1.14241 0,-1.49471 0.34302,-0.3523 1.11227,0.3523 1.45529,0 0.34302,-0.3523 -0.34302,-1.14241 0,-1.4947 0.34302,-0.35231 1.11228,0.35229 1.45529,0 0.34301,-0.35231 -0.34301,-1.14241 0,-1.49472 0.68603,-0.70461 2.22454,0.70462 2.91058,0 0.343,-0.3523 -0.34302,-1.1424 0,-1.49471 0.343,-0.3523 1.11227,0.35231 1.45528,0 0.34301,-0.3523 -0.34301,-1.1424 0,-1.49471 0.34301,-0.35231 1.11227,0.35231 1.45529,0 0.34302,-0.35231 -0.34302,-1.1424 0,-1.49471 0.34302,-0.3523 1.0214,0.22282 1.45528,0 0.61361,-0.31511 0.84168,-1.17959 1.45529,-1.4947 0.43388,-0.22282 1.11228,0.35231 1.45528,0 0.34302,-0.35231 -0.343,-1.14241 0,-1.49471 0.68604,-0.70462 2.22455,0.70461 2.91059,0 0.343,-0.35231 -0.34302,-1.14241 0,-1.49471 0.72763,-0.74736 3.6382,0.74735 4.36585,0 0.34302,-0.35231 -0.34301,-1.14241 0,-1.49472 0.72765,-0.74735 3.63822,0.74736 4.36586,0 0.34302,-0.35229 -0.34301,-1.1424 0,-1.4947 0.34302,-0.3523 0.9702,0 1.45529,0 0.4851,0 0.97019,0 1.45529,0 0.4851,0 0.97019,0 1.45529,0 0.48509,0 1.11226,0.3523 1.45528,0 0.34302,-0.3523 -0.34302,-1.1424 0,-1.49471 0.34302,-0.35231 0.97019,0 1.45529,0 0.48509,0 0.97019,0 1.45528,0 3.88077,0 7.76153,0 11.6423,0 0.48509,0 0.9702,0 1.45529,0 0.4851,0 1.11227,-0.35231 1.45529,0 0.343,0.35231 -0.34302,1.14241 0,1.49471 0.68602,0.70461 2.22454,-0.70461 2.91057,0 0.34302,0.3523 -0.34302,1.14241 0,1.4947 0.68603,0.70462 2.22455,-0.7046 2.91057,0 0.68603,0.70462 -0.68602,2.28481 0,2.98943 0.68603,0.70461 2.22455,-0.70462 2.91058,0 0.34301,0.3523 -0.34302,1.1424 0,1.49471 0.72764,0.74735 3.63821,-0.74736 4.36586,0 0.34301,0.35231 -0.34302,1.1424 0,1.4947 0.34301,0.35231 1.11227,-0.3523 1.45528,0 0.34302,0.35231 -0.34301,1.1424 0,1.49471 0.34302,0.35231 1.11228,-0.35231 1.45529,0 0.34302,0.35231 -0.34301,1.14241 0,1.49471 0.34302,0.35231 1.11228,-0.3523 1.45528,0 0.34302,0.35231 -0.343,1.14241 0,1.49471 0.34302,0.35231 1.11228,-0.3523 1.4553,0 0.34301,0.35231 -0.34302,1.14241 0,1.49472 0.34301,0.35229 1.11227,-0.35231 1.45528,0 0.34301,0.35229 -0.34301,1.1424 0,1.4947 0.34301,0.3523 1.11227,-0.3523 1.45529,0 0.34302,0.3523 -0.34302,1.1424 0,1.49471 0.34302,0.35231 1.11227,-0.35231 1.45529,0 0.68603,0.70461 -0.68603,2.28481 0,2.98942 0.34301,0.35231 1.11226,-0.35231 1.45528,0 0.34302,0.35231 -0.21694,1.04908 0,1.4947 0.3068,0.63023 1.14848,0.8645 1.45529,1.49471 0.21694,0.44564 -0.34301,1.14241 0,1.49472 0.34301,0.3523 1.11228,-0.35231 1.45528,0 0.68604,0.70461 -0.68602,2.2848 0,2.98942 0.34302,0.35231 1.11228,-0.35231 1.4553,0 0.343,0.35231 -0.34302,1.14239 0,1.4947 0.343,0.35231 1.11227,-0.35231 1.45528,0 0.68603,0.70462 -0.68603,2.28481 0,2.98942 0.34301,0.35231 1.11227,-0.3523 1.45529,0 0.68602,0.70462 -0.68603,2.28481 0,2.98943 0.34302,0.35229 1.11227,-0.35231 1.45528,0 0.68604,0.7046 -0.68602,2.28479 0,2.98941 0.34302,0.35231 1.11227,-0.35231 1.45529,0 0.34302,0.35231 -0.34302,1.1424 0,1.49471 0.34302,0.35231 1.11228,-0.35231 1.45529,0 0.34301,0.35231 -0.21695,1.04907 0,1.49471 0.3068,0.63022 1.14849,0.86448 1.45528,1.4947 0.21694,0.44564 -0.34301,1.14241 0,1.49471 0.34302,0.35231 1.11228,-0.3523 1.4553,0 0.343,0.35231 0,0.99648 0,1.49472 0.48509,0 1.11227,-0.35231 1.45528,0 0.34301,0.3523 -0.21694,1.04907 0,1.49471 0.76702,1.57559 2.14355,1.41382 2.91057,2.98941 0.21695,0.44564 -0.34301,1.1424 0,1.49471 0.34302,0.35231 1.11227,-0.35231 1.45529,0 0.34302,0.35231 -0.34302,1.14241 0,1.49471 0.34302,0.35231 1.11228,-0.3523 1.45528,0 0.34302,0.35231 -0.343,1.14241 0,1.49471 3.01105,3.09261 -0.1177,-4.72592 2.91059,1.49471 0.21693,0.44563 -0.34302,1.1424 0,1.49471 0.68602,0.70461 2.22453,-0.70462 2.91057,0 0.34301,0.3523 -0.34302,1.1424 0,1.49471 0.34301,0.35231 1.11227,-0.35231 1.45528,0 0.34302,0.35231 -0.34301,1.1424 0,1.49471 3.88076,0 -0.48509,-0.49824 1.45529,1.4947 0.34301,0.35231 1.11228,-0.3523 1.45528,0 0.34302,0.35231 -0.343,1.14241 0,1.49471 0.68604,0.70462 2.22455,-0.7046 2.91058,0 0.34301,0.35231 -0.34301,1.14241 0,1.49471 0.34301,0.35231 1.11227,-0.3523 1.45529,0 0.34301,0.35231 -0.34302,1.14241 0,1.49472 0.34301,0.3523 1.0214,-0.22282 1.45529,0 0.6136,0.31511 0.84168,1.17959 1.45528,1.49471 0.43389,0.22282 1.11227,-0.35231 1.45529,0 0.34301,0.35229 -0.34302,1.14239 0,1.4947 0.68603,0.70461 2.04281,-0.44563 2.91057,0 0.6136,0.31512 0.84169,1.1796 1.45529,1.49471 0.43388,0.22282 1.11227,-0.35231 1.45529,0 0.34301,0.35231 -0.34302,1.1424 0,1.49471 0.68602,0.70462 2.22455,-0.70461 2.91057,0 0.34302,0.35231 -0.34302,1.14241 0,1.49471 0.68603,0.70461 2.04281,-0.44563 2.91057,0 0.6136,0.31511 0.84169,1.1796 1.45529,1.4947 0.43388,0.22282 0.9702,0 1.45529,0 0.4851,0 0.97019,0 1.45529,0 3.88076,0 -0.4851,-0.49823 1.45528,1.49472 0.68603,0.70461 2.22455,-0.70461 2.91057,0 0.34302,0.3523 -0.34301,1.1424 0,1.49471 0.72765,0.74735 3.63822,-0.74736 4.36587,0 0.34301,0.3523 -0.34302,1.1424 0,1.49471 0.72764,0.74735 3.63821,-0.74736 4.36586,0 0.34301,0.35231 -0.34302,1.1424 0,1.49471 0.45062,0.46283 6.8258,-0.46283 7.27643,0 0.34301,0.35231 -0.34301,1.14239 0,1.4947 0.34301,0.35231 0.9702,0 1.45529,0 1.03151,0 8.35546,-0.19323 8.73172,0 0.61361,0.31512 0.84168,1.1796 1.45529,1.49471 0.88368,0.45381 7.84804,-0.45381 8.73172,0 0.61361,0.31511 0.84168,1.17961 1.45529,1.49471 0.43388,0.22282 0.97019,0 1.45528,0 0.4851,0 0.97019,0 1.45529,0 2.42547,0 4.85096,0 7.27644,0 0.48509,0 0.97019,0 1.45528,0 0.4851,0 1.11227,-0.3523 1.45529,0 0.34301,0.35231 -0.34302,1.14241 0,1.49472 0.34301,0.3523 0.97019,0 1.45528,0 0.4851,0 0.97019,0 1.45529,0 7.76153,0 15.52306,0 23.2846,0 2.56153,0 2.91057,-1.23628 2.91057,1.49471"
       id="path4170"
       inkscape:connector-curvature="0" />
    <path
       style="opacity:1;fill:#ffffff;fill-opacity:1;stroke:#000000;stroke-width:0;stroke-miterlimit:4;stroke-dasharray:none;stroke-opacity:1"
       d="m 184.89886,598.15221 0,-79.07418 9.27844,7.81279 c 8.96826,7.55161 24.00552,16.24717 28.09627,16.24717 1.09569,0 2.29968,0.49755 2.67552,1.10568 0.74346,1.20295 10.05087,4.45987 15.30135,5.35436 1.79993,0.30665 3.82023,0.896 4.48956,1.30967 0.79945,0.49408 1.21697,22.29207 1.21697,63.5354 l 0,62.78328 -30.52905,0 -30.52906,0 0,-79.07417 z"
       id="path4145"
       inkscape:connector-curvature="0"
       transform="translate(139.34421,203.70143)" />
    <path
       style="opacity:1;fill:#ffffff;fill-opacity:1;stroke:#000000;stroke-width:0;stroke-miterlimit:4;stroke-dasharray:none;stroke-opacity:1"
       d="m 184.89886,598.13503 0,-79.09135 7.8008,6.61789 c 9.30239,7.89179 21.99723,15.51152 28.9631,17.38432 2.7707,0.74491 5.33894,1.84191 5.7072,2.43778 0.36827,0.59586 3.75819,1.74639 7.53316,2.55673 12.3073,2.64188 11.05385,-4.8846 11.05385,66.37417 l 0,62.81181 -30.52905,0 -30.52906,0 0,-79.09135 z"
       id="path4147"
       inkscape:connector-curvature="0"
       transform="translate(139.34421,203.70143)" />
    <path
       style="opacity:1;fill:#ffffff;fill-opacity:1;stroke:#000000;stroke-width:0;stroke-miterlimit:4;stroke-dasharray:none;stroke-opacity:1"
       d="m 184.89886,598.19471 0,-79.03168 8.67983,7.03625 c 13.64161,11.05848 22.01033,15.41427 41.00471,21.34233 3.29235,1.02752 7.19827,2.33113 8.67983,2.8969 l 2.69374,1.02867 0,62.8796 0,62.8796 -30.52905,0 -30.52906,0 0,-79.03167 z"
       id="path4149"
       inkscape:connector-curvature="0"
       transform="translate(139.34421,203.70143)" />
    <path
       style="opacity:1;fill:#ffffff;fill-opacity:1;stroke:#000000;stroke-width:0;stroke-miterlimit:4;stroke-dasharray:none;stroke-opacity:1"
       d="m 121.44632,573.79513 c 0,-97.12208 0.1269,-103.47995 2.08037,-104.22957 1.14421,-0.43907 5.47074,-1.11491 9.6145,-1.50186 7.07538,-0.66071 7.85362,-0.47411 12.78126,3.06466 2.88593,2.07252 6.0599,3.76821 7.05326,3.76821 2.65538,0 9.19589,8.16981 15.55674,19.43207 l 5.59132,9.89977 7e-5,86.49899 6e-5,86.49898 -26.33879,0 -26.33879,0 0,-103.43125 z"
       id="path4151"
       inkscape:connector-curvature="0"
       transform="translate(139.34421,203.70143)" />
    <path
       style="opacity:1;fill:#ffffff;fill-opacity:1;stroke:#000000;stroke-width:0;stroke-miterlimit:4;stroke-dasharray:none;stroke-opacity:1"
       d="m 121.44632,573.79513 c 0,-97.12208 0.1269,-103.47995 2.08037,-104.22957 1.14421,-0.43907 5.41829,-1.11001 9.49796,-1.49098 6.88246,-0.64269 7.82679,-0.4216 13.0901,3.06466 3.11989,2.06653 6.3463,3.75733 7.16981,3.75733 2.36875,0 9.16349,8.65929 15.24789,19.43207 l 5.59132,9.89977 7e-5,86.49899 6e-5,86.49898 -26.33879,0 -26.33879,0 0,-103.43125 z"
       id="path4153"
       inkscape:connector-curvature="0"
       transform="translate(139.34421,203.70143)" />
    <path
       style="opacity:1;fill:#ffffff;fill-opacity:1;stroke:#000000;stroke-width:0;stroke-miterlimit:4;stroke-dasharray:none;stroke-opacity:1"
       d="m 67.831332,668.50882 -8.65939,-8.71758 0.308829,-71.69625 0.308829,-71.69626 7.183306,-4.59901 c 3.950819,-2.52946 8.91035,-5.71097 11.02118,-7.07001 2.11083,-1.35905 4.142287,-3.43013 4.514349,-4.60239 0.372063,-1.17227 3.412297,-4.23095 6.756077,-6.79707 5.661788,-4.34503 12.299798,-10.10478 18.713108,-16.23721 l 2.69374,-2.57576 0,101.35455 0,101.35455 -17.090321,0 -17.090317,0 -8.65939,-8.71756 z"
       id="path4155"
       inkscape:connector-curvature="0"
       transform="translate(139.34421,203.70143)" />
    <path
       style="opacity:1;fill:#ffffff;fill-opacity:1;stroke:#000000;stroke-width:0;stroke-miterlimit:4;stroke-dasharray:none;stroke-opacity:1"
       d="m 67.840856,668.5184 -8.649865,-8.70798 0,-71.42489 0,-71.42489 10.657421,-6.96473 c 5.861581,-3.83059 11.383748,-8.12568 12.271483,-9.54463 0.887733,-1.41895 6.193419,-6.48144 11.790413,-11.24998 5.596993,-4.76854 11.657912,-10.03866 13.468702,-11.71139 l 3.29235,-3.04132 0,101.3889 0,101.38889 -17.090321,0 -17.090317,0 -8.649866,-8.70798 z"
       id="path4157"
       inkscape:connector-curvature="0"
       transform="translate(139.34421,203.70143)" />
    <path
       style="opacity:1;fill:#ffffff;fill-opacity:1;stroke:#000000;stroke-width:0;stroke-miterlimit:4;stroke-dasharray:none;stroke-opacity:1"
       d="M 32.632732,634.83518 17.448043,620.32837 15.572378,584.62912 c -1.031616,-19.63458 -1.875665,-39.69616 -1.875665,-44.58128 l 0,-8.88203 4.062203,0 c 5.706581,0 22.207085,-3.52488 26.278805,-5.61375 1.871984,-0.96036 3.627765,-1.52196 3.901735,-1.24799 0.27397,0.27397 0.358591,28.51958 0.188046,62.76802 l -0.310081,62.26989 -15.184689,-14.5068 z"
       id="path4159"
       inkscape:connector-curvature="0"
       transform="translate(139.34421,203.70143)" />
    <path
       style="opacity:1;fill:#ffffff;fill-opacity:1;stroke:#000000;stroke-width:0;stroke-miterlimit:4;stroke-dasharray:none;stroke-opacity:1"
       d="m 32.595248,634.84804 -15.222173,-14.4895 -1.838181,-35.27698 c -1.011,-19.40234 -1.838181,-39.4707 -1.838181,-44.59636 l 0,-9.31939 4.062203,0 c 5.706581,0 22.207085,-3.52488 26.278805,-5.61375 1.871984,-0.96036 3.627765,-1.52196 3.901735,-1.24799 0.27397,0.27397 0.358591,28.51858 0.188046,62.7658 l -0.310081,62.26768 -15.222173,-14.48951 z"
       id="path4161"
       inkscape:connector-curvature="0"
       transform="translate(139.34421,203.70143)" />
    <path
       style="opacity:1;fill:#ffffff;fill-opacity:1;stroke:#000000;stroke-width:0;stroke-miterlimit:4;stroke-dasharray:none;stroke-opacity:1"
       d="m 256.73193,611.97412 0,-59.56979 5.68679,0.75926 c 3.12773,0.4176 15.11983,1.10326 26.64912,1.52371 l 20.96234,0.76445 -1.41922,21.07982 c -0.78056,11.59391 -1.45896,22.96785 -1.50754,25.27544 -0.075,3.56395 -3.87346,9.1293 -25.22991,36.96625 l -25.14158,32.77065 0,-59.56979 z"
       id="path4163"
       inkscape:connector-curvature="0"
       transform="translate(139.34421,203.70143)" />
    <path
       style="opacity:1;fill:#ffffff;fill-opacity:1;stroke:#000000;stroke-width:0;stroke-miterlimit:4;stroke-dasharray:none;stroke-opacity:1"
       d="m 256.73193,611.96917 0,-59.56484 5.68679,0.75926 c 3.12773,0.4176 15.2028,1.10583 26.83349,1.5294 l 21.14671,0.77015 -0.47893,3.71447 c -0.26341,2.04296 -1.05982,13.41194 -1.76979,25.26439 l -1.29087,21.54992 -14.54602,19.15549 c -8.00031,10.53551 -19.27898,25.28248 -25.0637,32.77104 l -10.51768,13.61556 0,-59.56484 z"
       id="path4165"
       inkscape:connector-curvature="0"
       transform="translate(139.34421,203.70143)" />
    <path
       style="opacity:1;fill:#ffffff;fill-opacity:1;stroke:#000000;stroke-width:0;stroke-miterlimit:4;stroke-dasharray:none;stroke-opacity:1"
       d="m 256.73193,611.91417 0,-59.50984 5.68679,0.74067 c 3.12773,0.40737 15.24263,1.09933 26.922,1.53769 l 21.23522,0.79701 -0.5593,4.3048 c -0.30761,2.36764 -1.16063,13.73289 -1.89558,25.25611 -0.73496,11.52322 -1.65847,21.47322 -2.05224,22.1111 -0.99678,1.61469 -43.1432,56.73639 -46.55544,60.88809 l -2.78145,3.38421 0,-59.50984 z"
       id="path4167"
       inkscape:connector-curvature="0"
       transform="translate(139.34421,203.70143)" />
    <path
       style="opacity:1;fill:#ffffff;fill-opacity:1;stroke:#000000;stroke-width:0;stroke-miterlimit:4;stroke-dasharray:none;stroke-opacity:1"
       d="m 256.73193,612.04996 0,-59.66922 6.88401,0.79001 c 3.7862,0.43451 15.92862,1.13145 26.98315,1.54876 l 20.09916,0.75874 -0.63121,4.90413 c -0.34717,2.69728 -1.20997,14.03476 -1.91733,25.19442 -0.70737,11.15966 -1.62147,20.85712 -2.03134,21.54992 -0.81176,1.37211 -46.72629,61.59872 -48.37582,63.4551 -0.55584,0.62555 -1.01062,-25.71379 -1.01062,-58.53186 z"
       id="path4169"
       inkscape:connector-curvature="0"
       transform="translate(139.34421,203.70143)" />
    <path
       style="opacity:1;fill:#ffffff;fill-opacity:1;stroke:#000000;stroke-width:0;stroke-miterlimit:4;stroke-dasharray:none;stroke-opacity:1"
       d="m 256.73193,612.0469 0,-59.67227 7.48261,0.78531 c 4.11544,0.43192 16.25437,1.1327 26.97541,1.55728 l 19.4928,0.77197 -0.65862,6.69449 c -0.74981,7.62121 -2.99681,39.19293 -3.00418,42.21039 -0.004,1.50595 -43.44523,59.89961 -49.23991,66.18775 -0.60052,0.65166 -1.04811,-24.3452 -1.04811,-58.53492 z"
       id="path4171"
       inkscape:connector-curvature="0"
       transform="translate(139.34421,203.70143)" />
    <path
       style="opacity:1;fill:#ffffff;fill-opacity:1;stroke:#000000;stroke-width:0;stroke-miterlimit:4;stroke-dasharray:none;stroke-opacity:1"
       d="m 256.73193,612.05213 0,-59.66706 7.48261,0.7404 c 4.11544,0.40722 16.27115,1.10444 27.01269,1.54937 l 19.53007,0.80897 -0.6893,7.29579 c -0.71625,7.58092 -3.03952,39.76279 -3.04805,42.22145 -0.004,1.12663 -45.23338,61.40842 -49.2053,65.58077 -0.64621,0.67883 -1.08272,-22.91789 -1.08272,-58.52969 z"
       id="path4173"
       inkscape:connector-curvature="0"
       transform="translate(139.34421,203.70143)" />
    <path
       style="opacity:1;fill:#ffffff;fill-opacity:1;stroke:#000000;stroke-width:0;stroke-miterlimit:4;stroke-dasharray:none;stroke-opacity:1"
       d="m 256.73193,612.06942 0,-59.68396 8.67983,0.73799 c 4.77391,0.40589 16.89574,1.09885 26.9374,1.5399 12.04648,0.52911 18.24597,1.25062 18.22347,2.12089 -0.0188,0.72543 -0.81153,11.28581 -1.76172,23.4675 -0.95019,12.18169 -1.74297,23.03823 -1.76173,24.12564 -0.0279,1.61583 -43.04318,59.60757 -48.67574,65.62294 -1.39202,1.48663 -1.64151,-7.31798 -1.64151,-57.9309 z"
       id="path4175"
       inkscape:connector-curvature="0"
       transform="translate(139.34421,203.70143)" />
    <path
       style="opacity:1;fill:#ffffff;fill-opacity:1;stroke:#000000;stroke-width:0;stroke-miterlimit:4;stroke-dasharray:none;stroke-opacity:1"
       d="m 256.73193,611.81337 0,-59.42692 9.87705,0.74847 c 5.43238,0.41167 17.55421,1.10475 26.9374,1.54019 9.3832,0.43544 17.06035,1.18458 17.06035,1.66474 0,0.48017 -0.81856,11.84832 -1.81903,25.26255 -1.58993,21.31762 -2.14332,24.8419 -4.39368,27.98118 -6.11419,8.52934 -46.78806,61.65671 -47.20387,61.65671 -0.25202,0 -0.45822,-26.74211 -0.45822,-59.42692 z"
       id="path4177"
       inkscape:connector-curvature="0"
       transform="translate(139.34421,203.70143)" />
    <path
       style="opacity:1;fill:#ffffff;fill-opacity:1;stroke:#000000;stroke-width:0;stroke-miterlimit:4;stroke-dasharray:none;stroke-opacity:1"
       d="m 184.89886,598.06458 0,-79.16181 6.2854,5.36746 c 10.0978,8.62311 20.32082,14.65835 33.75633,19.92833 6.90653,2.70903 13.41854,4.92552 14.47113,4.92552 1.05259,0 2.95587,0.5577 4.22952,1.23934 2.24432,1.20112 2.31573,3.17625 2.31573,64.05115 l 0,62.81181 -30.52905,0 -30.52906,0 0,-79.1618 z"
       id="path4179"
       inkscape:connector-curvature="0"
       transform="translate(139.34421,203.70143)" />
    <path
       style="opacity:1;fill:#858585;fill-opacity:1;stroke:#000000;stroke-width:0;stroke-miterlimit:4;stroke-dasharray:none;stroke-opacity:1"
       d="m 93.910308,117.136 0,-18.006881 -16.130459,-8.522575 C 68.908098,85.919129 61.440111,81.708069 61.184325,81.248633 60.928539,80.789197 60.365134,78.931738 59.932315,77.120946 l -0.786943,-3.292349 99.391888,0 c 57.20788,0 99.39189,0.451833 99.39189,1.064586 0,3.128625 -5.99561,7.141859 -21.5867,14.449323 l -17.32288,8.119145 0.44738,18.241599 c 0.428,17.45132 0.3493,18.21046 -1.81684,17.52295 -16.16502,-5.13057 -48.37952,-8.55938 -69.56349,-7.4041 -19.26837,1.05081 -42.66063,4.9018 -52.34199,8.61689 -1.597513,0.61302 -1.834322,-1.62078 -1.834322,-17.30299 z"
       id="path4181"
       inkscape:connector-curvature="0"
       transform="translate(139.34421,203.70143)" />
    <path
       style="opacity:1;fill:#858585;fill-opacity:1;stroke:#000000;stroke-width:0;stroke-miterlimit:4;stroke-dasharray:none;stroke-opacity:1"
       d="M 79.543694,47.275077 C 99.367367,28.699391 116.8861,17.543802 132.81989,13.349832 c 9.97697,-2.626063 30.44856,-3.5700575 41.13446,-1.89681 24.12654,3.777842 47.25316,16.074163 72.00262,38.283461 l 5.38748,4.834536 -89.79133,-0.0019 -89.791342,-0.0019 7.781916,-7.292111 z M 133.62353,34.733463 c 2.95862,-2.677515 2.83991,-9.030984 -0.22048,-11.800606 -5.36093,-4.851573 -14.35117,-1.009762 -14.35117,6.132704 0,6.453383 9.58432,10.181374 14.57165,5.667902 z m 27.58321,0.349217 c 5.47152,-4.15698 4.54922,-11.858292 -1.78379,-14.894908 -6.37058,-3.054631 -13.97996,3.782127 -11.49223,10.32536 1.48082,3.894835 4.4797,6.125561 8.23491,6.125561 1.64618,0 3.91468,-0.700206 5.04111,-1.556013 z m 30.60904,-1.428767 c 1.85894,-1.302055 2.66083,-3.085597 2.66083,-5.918202 0,-7.18204 -10.22861,-10.72271 -15.56384,-5.38748 -7.44635,7.446356 4.04179,17.512325 12.90301,11.305682 z"
       id="path4183"
       inkscape:connector-curvature="0"
       transform="translate(139.34421,203.70143)" />
  </g>
</svg>
