<?xml version="1.0" encoding="UTF-8" standalone="no"?>
<svg
   xmlns:dc="http://purl.org/dc/elements/1.1/"
   xmlns:cc="http://creativecommons.org/ns#"
   xmlns:rdf="http://www.w3.org/1999/02/22-rdf-syntax-ns#"
   xmlns:svg="http://www.w3.org/2000/svg"
   xmlns="http://www.w3.org/2000/svg"
   xmlns:sodipodi="http://sodipodi.sourceforge.net/DTD/sodipodi-0.dtd"
   xmlns:inkscape="http://www.inkscape.org/namespaces/inkscape"
   width="200px"
   height="200px"
   viewBox="0 0 105.83333 105.83333"
   version="1.1"
   id="svg8"
   inkscape:version="1.0.1 (3bc2e813f5, 2020-09-07)"
   sodipodi:docname="cross.svg">
  <defs
     id="defs2" />
  <sodipodi:namedview
     id="base"
     pagecolor="#ffffff"
     bordercolor="#666666"
     borderopacity="1.0"
     inkscape:pageopacity="0.0"
     inkscape:pageshadow="2"
     inkscape:zoom="1.2403374"
     inkscape:cx="645.53917"
     inkscape:cy="218.07525"
     inkscape:document-units="mm"
     inkscape:current-layer="layer1"
     inkscape:document-rotation="0"
     showgrid="false"
     inkscape:snap-page="false"
     inkscape:snap-object-midpoints="true"
     inkscape:window-width="1920"
     inkscape:window-height="986"
     inkscape:window-x="2038"
     inkscape:window-y="-11"
     inkscape:window-maximized="1"
     units="px" />
  <metadata
     id="metadata5">
    <rdf:RDF>
      <cc:Work
         rdf:about="">
        <dc:format>image/svg+xml</dc:format>
        <dc:type
           rdf:resource="http://purl.org/dc/dcmitype/StillImage" />
        <dc:title></dc:title>
      </cc:Work>
    </rdf:RDF>
  </metadata>
  <g
     inkscape:label="Vrstva 1"
     inkscape:groupmode="layer"
     id="layer1">
    <path
       id="path874"
       style="fill:#800000;fill-opacity:0;fill-rule:evenodd;stroke:#a60015;stroke-width:1.8748;stroke-opacity:1"
       d="M 97.945933,78.899774 C 88.130629,96.377504 67.527286,106.87563 47.635388,104.58221 27.679627,102.75317 9.6568639,88.268288 3.5816624,69.158379 -2.9302488,50.219951 2.9042305,27.84206 17.854233,14.510155 32.501452,0.8193543 55.313585,-2.9562085 73.591037,5.2392388 92.057125,13.006155 104.87483,32.253613 104.89118,52.307181 c 0.12709,9.274858 -2.2986,18.564292 -6.945247,26.592593 z" />
    <path
       id="path876"
       style="fill:#800000;fill-opacity:0;fill-rule:evenodd;stroke:#a60015;stroke-width:1.8748;stroke-opacity:1"
       d="M 81.834109,69.593475 C 74.725453,82.385588 58.615657,89.100427 44.534436,85.181319 30.35843,81.726303 19.583747,68.058652 19.557511,53.451277 19.060603,38.867623 29.349403,24.827887 43.395379,20.907394 c 14.07481,-4.429291 30.533219,1.910502 38.012001,14.630128 6.335177,10.183039 6.514314,23.712383 0.426729,34.055953 z" />
    <path
       id="path878"
       style="fill:#800000;fill-opacity:0;fill-rule:evenodd;stroke:#a60015;stroke-width:4.27531;stroke-opacity:1"
       d="M 22.713867,93.840415 C 9.9993068,84.219 1.9239996,68.643436 2.1931188,52.606815 2.112133,42.95945 5.0387518,33.461651 10.356277,25.429805 19.951104,9.6058452 39.260009,0.49239666 57.573174,2.4376983 77.469486,3.8348634 95.587699,18.493352 101.22724,37.633421 c 4.91704,15.089397 2.24529,32.390934 -7.308467,45.112875 -13.723992,19.935194 -42.961109,26.941844 -64.129755,15.1608 -2.399686,-1.271613 -4.859405,-2.488406 -7.075132,-4.066717 z m 16.675064,-9.27184 C 55.032453,91.71966 75.364817,84.661482 83.158136,69.291618 92.166104,53.958266 86.189607,32.19955 70.734862,23.486524 57.302215,14.868378 37.940797,17.578305 27.47733,29.672935 16.342825,41.384069 15.437561,61.089402 25.498758,73.737851 c 3.619909,4.684892 8.359995,8.629172 13.890173,10.830724 z" />
    <path
       id="path880"
       style="fill:#800000;fill-opacity:0;fill-rule:evenodd;stroke:#a60015;stroke-width:4.27531;stroke-opacity:1"
       d="M 23.028141,91.031603 C 11.202173,81.564844 4.0251726,66.577831 4.6812077,51.370931 4.718136,42.985266 7.1872829,34.730918 11.859006,27.763977 18.994918,14.747814 33.275087,6.5166935 47.786779,4.8270167 58.531122,4.0457679 69.744338,5.9070574 78.749481,12.12679 100.67784,24.989094 107.92466,56.80848 94.180056,78.105116 82.350132,98.636198 54.006316,107.22561 32.806888,96.73307 29.477383,94.975043 25.775295,93.696689 23.028135,91.031616 Z m 16.45289,-3.981039 c 14.463724,6.042753 32.539409,1.1383 42.094456,-11.22406 4.429138,-6.441257 8.321658,-13.715549 8.028538,-21.777673 C 90.354454,40.383806 82.442576,26.933879 70.295204,20.732704 56.551802,12.570485 37.642799,15.542542 26.754458,27.146897 14.957513,38.766091 12.628566,58.646003 21.865187,72.485418 c 4.085094,6.635128 10.319512,11.819858 17.615844,14.565146 z" />
    <path
       id="path882"
       style="fill:#800000;fill-opacity:0;fill-rule:evenodd;stroke:#a60015;stroke-width:4.27531;stroke-opacity:1"
       d="M 23.931233,88.711984 C 15.296885,81.481689 9.3831599,71.21928 7.7337428,60.051309 5.5762436,48.291921 8.5144755,35.875587 15.538761,26.221675 23.037822,15.247772 35.857954,8.4396805 48.949445,7.1520044 58.426838,6.6955061 68.284616,8.1546247 76.325197,13.506927 95.725038,24.043459 103.85128,50.193716 95.50397,70.317056 90.297821,82.66546 79.869003,92.900429 66.806915,96.508593 54.749855,100.53882 41.198091,99.153747 30.183648,92.825486 27.867137,91.833864 25.785533,90.404323 23.931233,88.711984 Z M 42.000215,90.28831 C 56.032416,94.768271 72.263649,89.797615 82.032155,78.960439 85.677432,73.51872 89.328366,67.805727 91.182723,61.475999 93.5584,48.892033 90.368479,34.940537 80.992765,25.87492 70.99507,15.697714 55.42928,11.062169 41.673841,15.446181 c -16.676497,4.90011 -28.810632,21.868516 -27.768729,39.27963 0.572131,15.01975 10.716311,29.446248 24.983653,34.455859 1.02084,0.412056 2.052373,0.803266 3.11145,1.10664 z" />
    <path
       id="path884"
       style="fill:#800000;fill-opacity:0;fill-rule:evenodd;stroke:#a60015;stroke-width:4.27531;stroke-opacity:1"
       d="M 23.411542,84.77888 C 10.87574,73.422731 6.444502,54.4637 11.530551,38.487788 14.806164,31.005618 19.011306,23.561779 25.708539,18.620128 34.422814,12.04564 45.553446,8.2024773 56.519661,9.4862429 64.249501,9.6854973 71.515906,12.69639 77.803806,17.064083 93.389961,27.330445 99.778222,48.638083 94.41951,66.223573 90.105402,78.085898 81.206776,88.716867 69.058717,92.976262 53.913301,98.945297 35.282581,96.236106 23.411542,84.77888 Z m 12.778886,5.563384 c 13.427743,6.375199 29.97197,4.11812 41.692143,-4.847829 C 84.6642,81.185376 87.827262,73.40977 91.580773,66.653512 94.545074,60.565676 94.427875,53.414272 93.73754,46.82832 92.19027,36.489174 87.009772,26.536311 78.336734,20.458283 70.067167,14.188561 59.747827,10.313203 49.267509,11.397713 29.006976,12.925462 11.69159,31.29705 11.594717,51.676586 c -0.678225,16.24024 9.468357,32.554699 24.595711,38.665678 z" />
  </g>
</svg>
