<?xml version="1.0" encoding="UTF-8" standalone="no"?>
<svg
   xmlns:dc="http://purl.org/dc/elements/1.1/"
   xmlns:cc="http://creativecommons.org/ns#"
   xmlns:rdf="http://www.w3.org/1999/02/22-rdf-syntax-ns#"
   xmlns:svg="http://www.w3.org/2000/svg"
   xmlns="http://www.w3.org/2000/svg"
   xmlns:xlink="http://www.w3.org/1999/xlink"
   xmlns:sodipodi="http://sodipodi.sourceforge.net/DTD/sodipodi-0.dtd"
   xmlns:inkscape="http://www.inkscape.org/namespaces/inkscape"
   inkscape:version="1.0.1 (3bc2e813f5, 2020-09-07)"
   sodipodi:docname="prvni_vektorove.svg"
   id="svg8"
   version="1.1"
   viewBox="0 0 210 297"
   height="297mm"
   width="210mm">
  <defs
     id="defs2">
    <rect
       x="118.93494"
       y="115.99498"
       width="63.342878"
       height="25.657875"
       id="rect901" />
    <rect
       x="151.80909"
       y="31.805074"
       width="67.351921"
       height="20.847023"
       id="rect895" />
    <rect
       x="134.43657"
       y="30.468726"
       width="33.78606"
       height="11.225341"
       id="rect887" />
    <rect
       id="rect1033"
       height="27.739317"
       width="8.6078913"
       y="180.4417"
       x="17.661454" />
    <linearGradient
       id="linearGradient978"
       inkscape:collect="always">
      <stop
         id="stop974"
         offset="0"
         style="stop-color:#ff0000;stop-opacity:1" />
      <stop
         style="stop-color:#ff0000;stop-opacity:1"
         offset="0.12586065"
         id="stop1025" />
      <stop
         style="stop-color:#fff100;stop-opacity:1"
         offset="0.26390955"
         id="stop982" />
      <stop
         id="stop984"
         offset="0.39626569"
         style="stop-color:#1cff00;stop-opacity:1" />
      <stop
         style="stop-color:#00ff9b;stop-opacity:1"
         offset="0.61685926"
         id="stop986" />
      <stop
         id="stop988"
         offset="0.86733979"
         style="stop-color:#0076ff;stop-opacity:1" />
      <stop
         id="stop976"
         offset="1"
         style="stop-color:#0018ff;stop-opacity:1" />
    </linearGradient>
    <linearGradient
       id="linearGradient863"
       inkscape:collect="always">
      <stop
         id="stop859"
         offset="0"
         style="stop-color:#dadada;stop-opacity:1" />
      <stop
         id="stop861"
         offset="1"
         style="stop-color:#f9f9f9;stop-opacity:1" />
    </linearGradient>
    <radialGradient
       gradientTransform="matrix(0.9181923,0,0,0.92661575,34.656909,-74.344745)"
       gradientUnits="userSpaceOnUse"
       r="13.353959"
       fy="145.72975"
       fx="30.190611"
       cy="145.72975"
       cx="30.190611"
       id="radialGradient865"
       xlink:href="#linearGradient863"
       inkscape:collect="always" />
    <filter
       height="1.1825221"
       y="-0.091261027"
       width="1.1825221"
       x="-0.091261027"
       id="filter899"
       style="color-interpolation-filters:sRGB"
       inkscape:collect="always">
      <feGaussianBlur
         id="feGaussianBlur901"
         stdDeviation="0.9965673"
         inkscape:collect="always" />
    </filter>
    <radialGradient
       r="13.353959"
       fy="145.72975"
       fx="30.190611"
       cy="145.72975"
       cx="30.190611"
       gradientTransform="matrix(0.95542052,0,0,0.95542052,99.335239,-77.858904)"
       gradientUnits="userSpaceOnUse"
       id="radialGradient910"
       xlink:href="#linearGradient863"
       inkscape:collect="always" />
    <radialGradient
       r="13.353959"
       fy="145.72975"
       fx="30.190611"
       cy="145.72975"
       cx="30.190611"
       gradientTransform="matrix(0.92995011,0,0,0.92995011,66.798558,-71.879774)"
       gradientUnits="userSpaceOnUse"
       id="radialGradient916"
       xlink:href="#linearGradient863"
       inkscape:collect="always" />
    <radialGradient
       r="13.353959"
       fy="145.72975"
       fx="30.190611"
       cy="145.72975"
       cx="30.190611"
       gradientTransform="matrix(0.96147256,0,0,0.96147256,133.20692,-77.531738)"
       gradientUnits="userSpaceOnUse"
       id="radialGradient922"
       xlink:href="#linearGradient863"
       inkscape:collect="always" />
    <linearGradient
       gradientUnits="userSpaceOnUse"
       y2="617.74121"
       x2="528.00977"
       y1="617.74121"
       x1="26.117188"
       id="linearGradient980"
       xlink:href="#linearGradient978"
       inkscape:collect="always"
       gradientTransform="matrix(0.2762564,0,0,0.29021397,35.454875,-117.12195)" />
  </defs>
  <sodipodi:namedview
     inkscape:snap-text-baseline="true"
     inkscape:window-maximized="1"
     inkscape:window-y="-8"
     inkscape:window-x="-8"
     inkscape:window-height="1014"
     inkscape:window-width="1920"
     showgrid="false"
     inkscape:document-rotation="0"
     inkscape:current-layer="layer1"
     inkscape:document-units="mm"
     inkscape:cy="515.71921"
     inkscape:cx="416.67116"
     inkscape:zoom="0.70710678"
     inkscape:pageshadow="2"
     inkscape:pageopacity="0.0"
     borderopacity="1.0"
     bordercolor="#666666"
     pagecolor="#ffffff"
     id="base" />
  <metadata
     id="metadata5">
    <rdf:RDF>
      <cc:Work
         rdf:about="">
        <dc:format>image/svg+xml</dc:format>
        <dc:type
           rdf:resource="http://purl.org/dc/dcmitype/StillImage" />
        <dc:title></dc:title>
      </cc:Work>
    </rdf:RDF>
  </metadata>
  <g
     id="layer1"
     inkscape:groupmode="layer"
     inkscape:label="Vrstva 1">
    <circle
       style="fill:#000000;fill-opacity:1;stroke:#ffffff;stroke-width:0.5;stroke-miterlimit:4;stroke-dasharray:none;stroke-opacity:1;filter:url(#filter899)"
       id="circle869"
       cx="62.358055"
       cy="61.000549"
       r="13.103959" />
    <path
       d="m 62.305164,31.491972 c -1.144343,0.01312 -2.065447,0.991379 -2.065448,2.19361 1.14e-4,0.765735 0.380292,1.475993 1.003048,1.873921 v 5.96469 c -10.419161,0.605146 -18.572662,9.65707 -18.572848,20.619363 v 5.66e-4 h 5.976204 v -5.66e-4 c 9.6e-5,-7.907209 6.079901,-14.329395 13.606706,-14.372961 0.02518,-7.3e-5 0.05036,-7.3e-5 0.07554,0 7.55611,2.22e-4 13.681495,6.435086 13.681706,14.372961 v 5.66e-4 h 5.975664 v 0.02211 h -5.919009 v 5.66e-4 c -9.5e-5,10.962508 8.153483,20.014762 18.572848,20.61992 v 6.694768 c -0.622755,0.397927 -1.002933,1.108184 -1.003049,1.873917 6.9e-5,1.211469 0.934909,2.19354 2.088113,2.193612 1.153203,-7.4e-5 2.08804,-0.982145 2.088109,-2.193612 1.88e-4,-0.765824 -0.379797,-1.476317 -1.002511,-1.874488 v -6.694756 c 10.419163,-0.605143 17.925253,-9.657633 17.925443,-20.619927 -1.4e-4,-0.0529 -0.64641,0.157575 0,-5.69e-4 3.7e-4,0.05271 2e-5,-0.05215 0,5.69e-4 v 0 -5.69e-4 c 1e-4,-7.907214 6.07991,-14.329403 13.60672,-14.372961 0.0252,-7.3e-5 0.0503,-7.3e-5 0.0755,0 7.55611,2.2e-4 13.6815,6.435084 13.68171,14.372961 v 5.69e-4 0 c -0.47813,11.357619 10.6685,19.950908 18.47789,20.620486 v 6.694768 c -0.62276,0.397926 -1.00293,1.108183 -1.00305,1.873917 7e-5,1.211467 0.93491,2.193538 2.08811,2.193612 1.1532,-7.4e-5 2.08804,-0.982145 2.08811,-2.193612 1.9e-4,-0.765823 -0.3798,-1.476317 -1.00251,-1.874488 v -6.694756 c 10.41916,-0.605145 18.57266,-9.657068 18.57285,-20.619361 -1.4e-4,-0.0529 -4.7e-4,-0.105808 -0.001,-0.15871 3.7e-4,0.05271 5.5e-4,0.105429 5.3e-4,0.158144 h -5.97566 v 5.66e-4 c -2.2e-4,7.937869 -6.1256,14.372725 -13.6817,14.372951 -0.0252,7.3e-5 -0.0504,7.3e-5 -0.0756,0 -7.98315,-1.671622 -12.90109,-8.453628 -13.5123,-14.373517 v 0 c 1e-5,0.05271 -1.7e-4,0.105429 -5.5e-4,0.158142 5.3e-4,-0.0529 8.6e-4,-0.105806 0.001,-0.158711 1e-4,-10.962513 -8.15348,-20.014772 -18.57285,-20.619929 v -5.986229 c 0.62275,-0.39793 1.00293,-1.108188 1.00304,-1.873921 -7e-5,-1.211684 -0.93523,-2.193845 -2.08864,-2.193611 -0.008,-4.3e-5 -0.0151,-4.3e-5 -0.0227,0 -1.14434,0.01312 -2.06544,0.991383 -2.06544,2.193611 1.1e-4,0.765733 0.38029,1.475991 1.00304,1.873921 v 5.986798 c -10.41916,0.605145 -18.57266,9.657067 -18.57285,20.61936 v 5.69e-4 c 0.22003,6.687689 -6.80282,15.011462 -12.922679,15.496049 -7.526802,-0.04356 -13.793697,-7.588277 -13.793798,-15.495483 v -5.66e-4 h -0.05665 v -0.02267 C 81.986301,51.18103 73.832691,42.128764 63.413302,41.523634 V 35.55951 c 0.622756,-0.397928 1.002934,-1.108186 1.003048,-1.873921 -7e-5,-1.211467 -0.934908,-2.193538 -2.088111,-2.193611 -0.0077,-4.5e-5 -0.01547,-4.5e-5 -0.0232,0 z m 33.556521,10.024286 c 0.04928,3.39e-4 0.09856,8.72e-4 0.147841,0.0016 -0.04928,-7.28e-4 -0.09856,-0.0013 -0.147841,-0.0016 z m 65.937885,0 c 0.0493,3.39e-4 0.0986,8.72e-4 0.14783,0.0016 -0.0493,-7.28e-4 -0.0985,-0.0013 -0.14783,-0.0016 z m -66.363601,0.0016 c -0.05504,8.9e-4 -0.110075,0.002 -0.165105,0.0034 0.05503,-0.0014 0.110066,-0.0025 0.165105,-0.0034 z m 65.937881,0 c -0.055,8.9e-4 -0.11008,0.002 -0.16511,0.0034 0.055,-0.0014 0.11007,-0.0025 0.16511,-0.0034 z m -64.726021,0.0204 c 0.03724,0.002 0.07447,0.0041 0.11169,0.0063 -0.03722,-0.0022 -0.07445,-0.0043 -0.11169,-0.0063 z m 65.937871,0 c 0.0372,0.002 0.0745,0.0041 0.11169,0.0063 -0.0372,-0.0022 -0.0745,-0.0043 -0.11169,-0.0063 z m -68.129038,0.02097 c -0.04749,0.0031 -0.09497,0.0063 -0.142444,0.0097 0.04747,-0.0034 0.09495,-0.0066 0.142444,-0.0097 z m 65.937878,0 c -0.0475,0.0031 -0.095,0.0063 -0.14244,0.0097 0.0475,-0.0034 0.0949,-0.0066 0.14244,-0.0097 z m -63.17963,0.0153 c 0.05074,0.0041 0.101455,0.0085 0.152158,0.01304 -0.0507,-0.0046 -0.101423,-0.0089 -0.152158,-0.01304 z m 65.93788,0 c 0.0507,0.0041 0.10145,0.0085 0.15215,0.01304 -0.0507,-0.0046 -0.10142,-0.0089 -0.15215,-0.01304 z m -64.569549,0.160413 c 0.04679,0.0072 0.09355,0.01456 0.140286,0.0221 -0.04674,-0.0075 -0.0935,-0.01491 -0.140286,-0.0221 z m 65.937879,0 c 0.0468,0.0072 0.0935,0.01456 0.14029,0.0221 -0.0467,-0.0075 -0.0935,-0.01491 -0.14029,-0.0221 z m -65.735001,0.0323 c 0.03905,0.0065 0.07808,0.0131 0.117085,0.01984 -0.03901,-0.0067 -0.07804,-0.01335 -0.117085,-0.01984 z m 65.937881,0 c 0.0391,0.0065 0.0781,0.0131 0.11708,0.01984 -0.039,-0.0067 -0.078,-0.01335 -0.11708,-0.01984 z M 91.752371,41.94131 c -0.06391,0.01384 -0.127764,0.02801 -0.191545,0.04252 0.06378,-0.01451 0.12763,-0.02868 0.191545,-0.04252 z m 65.937879,0 c -0.0639,0.01384 -0.12777,0.02801 -0.19155,0.04252 0.0638,-0.01451 0.12763,-0.02868 0.19155,-0.04252 z m -57.750006,0.05442 c 0.04338,0.01005 0.08673,0.02025 0.130036,0.0306 -0.0433,-0.01035 -0.08666,-0.02055 -0.130036,-0.0306 z m 65.937876,0 c 0.0434,0.01005 0.0867,0.02025 0.13004,0.0306 -0.0433,-0.01035 -0.0867,-0.02055 -0.13004,-0.0306 z m -65.74525,0.04592 c 0.0522,0.01243 0.10436,0.02509 0.15647,0.03797 -0.0521,-0.01288 -0.10426,-0.02554 -0.15647,-0.03797 z m 65.93787,0 c 0.0522,0.01243 0.10437,0.02509 0.15648,0.03797 -0.0521,-0.01288 -0.10427,-0.02554 -0.15648,-0.03797 z m -74.904333,0.03684 c -0.06357,0.01591 -0.127056,0.03216 -0.190468,0.04874 0.06341,-0.01658 0.126902,-0.03283 0.190468,-0.04874 z m 65.937873,0 c -0.0636,0.01591 -0.12705,0.03216 -0.19046,0.04874 0.0634,-0.01658 0.1269,-0.03283 0.19046,-0.04874 z m -56.5975,0.05725 c 0.0443,0.01174 0.0885,0.02364 0.13274,0.0357 -0.0442,-0.01206 -0.0885,-0.02396 -0.13274,-0.0357 z m 65.93788,0 c 0.0443,0.01174 0.0885,0.02364 0.13273,0.0357 -0.0442,-0.01206 -0.0884,-0.02396 -0.13273,-0.0357 z m -65.56611,0.102031 c 0.0576,0.01654 0.11518,0.03336 0.17266,0.05045 -0.0575,-0.01709 -0.11503,-0.03391 -0.17266,-0.05045 z m 65.93787,0 c 0.0576,0.01654 0.11519,0.03336 0.17267,0.05045 -0.0575,-0.01709 -0.11504,-0.03391 -0.17267,-0.05045 z m -76.596949,0.103731 c -0.06268,0.01914 -0.125272,0.0386 -0.187769,0.05839 0.0625,-0.01979 0.125087,-0.03925 0.187769,-0.05839 z m 65.937879,0 c -0.0627,0.01914 -0.12527,0.0386 -0.18777,0.05839 0.0625,-0.01979 0.12509,-0.03925 0.18777,-0.05839 z m -66.312875,0.119033 c -0.05421,0.01789 -0.108347,0.03603 -0.162408,0.05442 0.05406,-0.01839 0.108197,-0.03653 0.162408,-0.05442 z m 65.937875,0 c -0.0542,0.01789 -0.10834,0.03603 -0.1624,0.05442 0.0541,-0.01839 0.10819,-0.03653 0.1624,-0.05442 z m -53.76856,0.140006 c 0.0412,0.0146 0.0824,0.02934 0.12356,0.04422 -0.0411,-0.01488 -0.0823,-0.02962 -0.12356,-0.04422 z m 65.93787,0 c 0.0412,0.0146 0.0824,0.02934 0.12356,0.04422 -0.0411,-0.01488 -0.0823,-0.02962 -0.12356,-0.04422 z m -80.303747,0.738005 c -0.04576,0.02173 -0.09145,0.04365 -0.137051,0.06575 0.0456,-0.0221 0.09129,-0.04402 0.137051,-0.06575 z m 65.937877,0 c -0.0458,0.02173 -0.0914,0.04365 -0.13704,0.06575 0.0456,-0.0221 0.0913,-0.04402 0.13704,-0.06575 z M 87.292341,43.51086 c -0.03638,0.01802 -0.07271,0.03616 -0.108991,0.05442 0.03628,-0.01826 0.07261,-0.0364 0.108991,-0.05442 z m 65.937879,0 c -0.0364,0.01802 -0.0727,0.03616 -0.10899,0.05442 0.0363,-0.01826 0.0726,-0.0364 0.10899,-0.05442 z m -48.84991,0.112798 c 0.0338,0.01747 0.0676,0.03505 0.10139,0.05272 -0.0337,-0.01767 -0.0675,-0.03525 -0.10139,-0.05272 z m 65.93788,0 c 0.0338,0.01747 0.0676,0.03505 0.10138,0.05272 -0.0337,-0.01767 -0.0675,-0.03525 -0.10138,-0.05272 z m -65.59634,0.180249 c 0.0487,0.02643 0.0972,0.05307 0.14569,0.07992 -0.0485,-0.02685 -0.097,-0.05349 -0.14569,-0.07992 z m 65.93788,0 c 0.0487,0.02643 0.0972,0.05307 0.14568,0.07992 -0.0485,-0.02685 -0.097,-0.05349 -0.14568,-0.07992 z m -84.662883,0.416617 c -0.03387,0.0203 -0.06768,0.04071 -0.101436,0.06122 0.03375,-0.02051 0.06757,-0.04092 0.101436,-0.06122 z m 65.937883,0 c -0.0339,0.0203 -0.0677,0.04071 -0.10149,0.06122 0.0338,-0.02051 0.0676,-0.04092 0.10149,-0.06122 z m -67.202079,0.824792 c -0.05052,0.03565 -0.100876,0.07155 -0.151076,0.107691 0.0502,-0.03614 0.100559,-0.07204 0.151076,-0.107691 z m 65.937879,0 c -0.0505,0.03565 -0.10088,0.07155 -0.15108,0.107691 0.0502,-0.03614 0.10056,-0.07204 0.15108,-0.107691 z m -43.77207,0.13037 c 0.0489,0.03529 0.0976,0.07081 0.14621,0.106561 -0.0486,-0.03575 -0.0973,-0.07127 -0.14621,-0.106561 z m 65.93787,0 c 0.0489,0.03529 0.0976,0.07081 0.14622,0.106561 -0.0486,-0.03575 -0.0973,-0.07127 -0.14622,-0.106561 z m -65.78573,0.111096 c 0.0478,0.03549 0.0955,0.0712 0.143,0.107132 -0.0475,-0.03593 -0.0952,-0.07165 -0.143,-0.107132 z m 65.93789,0 c 0.0478,0.03549 0.0955,0.0712 0.14298,0.107132 -0.0475,-0.03593 -0.0952,-0.07165 -0.14298,-0.107132 z m -65.77169,0.124703 c 0.0494,0.03755 0.0987,0.07533 0.14783,0.113362 -0.0491,-0.03803 -0.0984,-0.07582 -0.14783,-0.113362 z m 65.93787,0 c 0.0494,0.03755 0.0987,0.07533 0.14785,0.113362 -0.0491,-0.03803 -0.0984,-0.07582 -0.14785,-0.113362 z m -61.63216,4.464306 c 0.0287,0.04089 0.0573,0.08189 0.0858,0.123001 -0.0285,-0.04111 -0.0571,-0.08211 -0.0858,-0.123001 z m 65.93788,0 c 0.0287,0.04089 0.0573,0.08189 0.0858,0.123001 -0.0285,-0.04111 -0.0571,-0.08211 -0.0858,-0.123001 z m -65.5931,0.504473 c 0.0295,0.04485 0.0588,0.08981 0.0879,0.134903 -0.0291,-0.04509 -0.0584,-0.09006 -0.0879,-0.134903 z m 65.93787,0 c 0.0295,0.04485 0.0588,0.08981 0.0879,0.134903 -0.0291,-0.04509 -0.0584,-0.09006 -0.0879,-0.134903 z m 0.32051,0.500506 c 0.033,0.05293 0.0657,0.106028 0.0982,0.159278 -0.0325,-0.05325 -0.0652,-0.106344 -0.0982,-0.159278 z m 1.07643,1.960076 c 0.0278,0.05749 0.0553,0.11512 0.0826,0.172883 -0.0273,-0.05776 -0.0548,-0.115391 -0.0826,-0.172883 z m 0.79639,1.880156 c 0.0182,0.04905 0.0362,0.09818 0.054,0.147375 -0.0178,-0.0492 -0.0358,-0.09832 -0.054,-0.147375 z m 0.1376,0.38544 c 0.0189,0.05471 0.0376,0.109504 0.0561,0.16438 -0.0185,-0.05488 -0.0372,-0.10967 -0.0561,-0.16438 z m 0.0744,0.218795 c 0.0129,0.03832 0.0256,0.07667 0.0383,0.115067 -0.0127,-0.03839 -0.0254,-0.07675 -0.0383,-0.115067 z m 0.1322,0.407547 c 0.0116,0.03738 0.0232,0.07479 0.0346,0.112232 -0.0114,-0.03744 -0.023,-0.07486 -0.0346,-0.112232 z m 0.10521,0.349163 c 0.0161,0.05454 0.0319,0.10914 0.0475,0.163813 -0.0156,-0.05467 -0.0314,-0.109278 -0.0475,-0.163813 z m 0.11169,0.394511 c 0.0179,0.06547 0.0355,0.131033 0.0528,0.196686 -0.0173,-0.06565 -0.0349,-0.131216 -0.0528,-0.196686 z m 0.054,0.200088 c 0.0154,0.0585 0.0305,0.117074 0.0453,0.175715 -0.0149,-0.05864 -0.03,-0.117214 -0.0453,-0.175715 z m 0.10201,0.404711 c 0.013,0.05379 0.0257,0.107643 0.0383,0.161545 -0.0126,-0.0539 -0.0253,-0.107751 -0.0383,-0.161545 z m 0.0944,0.408683 c 0.0101,0.04531 0.0199,0.09066 0.0297,0.136038 -0.01,-0.04538 -0.0196,-0.09073 -0.0297,-0.136038 z m 0.0836,0.396208 c 0.01,0.04682 0.0189,0.09368 0.0281,0.140572 -0.009,-0.04689 -0.0186,-0.09375 -0.0281,-0.140572 z m 0.0787,0.41095 c 0.008,0.04456 0.0159,0.08915 0.0237,0.133768 -0.008,-0.04462 -0.0157,-0.08921 -0.0237,-0.133768 z m -65.80622,0.812257 c 0.008,0.05551 0.0157,0.111064 0.0232,0.166646 -0.008,-0.05558 -0.0152,-0.111131 -0.0232,-0.166646 z m 65.93788,0 c 0.008,0.05551 0.0157,0.111064 0.0232,0.166646 -0.008,-0.05558 -0.0153,-0.111131 -0.0232,-0.166646 z m -65.88392,0.406412 c 0.007,0.05477 0.0131,0.10956 0.0194,0.16438 -0.006,-0.05482 -0.0127,-0.109614 -0.0194,-0.16438 z m 65.93788,0 c 0.007,0.05477 0.0131,0.10956 0.0194,0.16438 -0.006,-0.05482 -0.0127,-0.109614 -0.0194,-0.16438 z m -65.86882,0.640514 0.009,0.105991 z m 65.93842,0 0.009,0.105991 z m -65.90388,0.411511 c 0.002,0.03344 0.005,0.06688 0.007,0.100331 -0.002,-0.03345 -0.005,-0.06689 -0.007,-0.100331 z m 65.93733,0 c 0.002,0.03344 0.005,0.06688 0.007,0.100331 -0.002,-0.03345 -0.005,-0.06689 -0.007,-0.100331 z m -65.90226,0.575895 0.006,0.136039 z m 65.93733,0 0.006,0.136039 z m -65.92222,0.409249 c 0.002,0.06725 0.004,0.134517 0.005,0.201788 -0.001,-0.06727 -0.003,-0.134534 -0.005,-0.201788 z m 65.93733,0 c 0.002,0.06725 0.004,0.134517 0.005,0.201788 -0.001,-0.06727 -0.003,-0.134534 -0.005,-0.201788 z m -33.2398,1.024818 c -0.001,0.06727 -0.003,0.134534 -0.005,0.201788 0.002,-0.06725 0.004,-0.134517 0.005,-0.201788 z m -0.014,0.474996 -0.006,0.136037 z M 42.820454,64.694263 c 0.0051,0.0431 0.0103,0.08618 0.01565,0.129239 -0.0053,-0.04306 -0.01056,-0.08614 -0.01565,-0.129239 z m 2.374078,7.573905 c 0.02074,0.03899 0.0416,0.07791 0.06258,0.116762 -0.02098,-0.03885 -0.04184,-0.07777 -0.06258,-0.116762 z m 33.694649,1.002146 c -0.0325,0.05325 -0.06523,0.106343 -0.0982,0.159277 0.03297,-0.05293 0.0657,-0.106027 0.0982,-0.159277 z m 66.089499,0.02216 c -0.0325,0.05325 -0.0653,0.106343 -0.0983,0.159277 0.033,-0.05293 0.0658,-0.106027 0.0983,-0.159277 z m -66.420251,0.502773 c -0.02915,0.04509 -0.05846,0.09006 -0.08795,0.134904 0.02949,-0.04485 0.0588,-0.08981 0.08795,-0.134904 z m 66.089491,0.02216 c -0.0291,0.04509 -0.0584,0.09006 -0.0879,0.134904 0.0295,-0.04485 0.0588,-0.08981 0.0879,-0.134904 z m -66.436431,0.494272 c -0.02845,0.04111 -0.05705,0.08211 -0.08579,0.123003 0.02874,-0.04089 0.05734,-0.08189 0.08579,-0.123003 z m 66.089501,0.02216 c -0.0285,0.04111 -0.0571,0.08211 -0.0858,0.123003 0.0287,-0.04089 0.0573,-0.08189 0.0858,-0.123003 z m -94.979338,3.295518 c 0.04907,0.04541 0.09835,0.09057 0.147841,0.135464 -0.04949,-0.0449 -0.09878,-0.09005 -0.147841,-0.135464 z m 66.089498,0.02216 c 0.0491,0.04542 0.0983,0.09058 0.14784,0.135474 -0.0495,-0.0449 -0.0988,-0.09006 -0.14784,-0.135474 z m -41.443324,1.134209 c -0.04911,0.03803 -0.09839,0.07582 -0.147841,0.113373 0.04945,-0.03755 0.09873,-0.07534 0.147841,-0.113373 z m 66.089494,0.02216 c -0.0491,0.03803 -0.0984,0.07582 -0.14784,0.113362 0.0495,-0.03755 0.0987,-0.07533 0.14784,-0.113362 z m -66.260535,0.10881 c -0.04751,0.03594 -0.09517,0.07167 -0.142985,0.107164 0.04781,-0.0355 0.09547,-0.07122 0.142985,-0.107164 z m 66.089495,0.02216 c -0.0475,0.03594 -0.0952,0.07167 -0.14298,0.107165 0.0478,-0.0355 0.0955,-0.07122 0.14298,-0.107165 z m -66.238417,0.08961 c -0.04859,0.03573 -0.09733,0.07124 -0.146219,0.106506 0.04889,-0.03527 0.09763,-0.07077 0.146219,-0.106506 z m 66.089497,0.02216 c -0.0486,0.03577 -0.0973,0.07131 -0.14622,0.106615 0.0489,-0.03531 0.0976,-0.07085 0.14622,-0.106615 z M 51.184765,79.15779 c 0.0502,0.03615 0.10056,0.07205 0.151078,0.107713 -0.05052,-0.03566 -0.100878,-0.07156 -0.151078,-0.107713 z m 66.089495,0.02216 c 0.0502,0.03615 0.10055,0.07205 0.15107,0.107713 -0.0505,-0.03566 -0.10087,-0.07156 -0.15107,-0.107713 z m 1.31384,0.871212 c 0.0337,0.02051 0.0675,0.04091 0.10138,0.06121 -0.0339,-0.0203 -0.0676,-0.0407 -0.10138,-0.06121 z m -47.117375,0.37581 c -0.04845,0.02687 -0.09701,0.05352 -0.145681,0.07996 0.04867,-0.02644 0.09723,-0.05309 0.145681,-0.07996 z m 66.089495,0.02216 c -0.0484,0.02687 -0.097,0.05352 -0.14568,0.07996 0.0487,-0.02644 0.0972,-0.05309 0.14568,-0.07996 z m -66.475282,0.185349 c -0.03376,0.01769 -0.06758,0.03528 -0.101436,0.05276 0.03386,-0.01748 0.06767,-0.03507 0.101436,-0.05276 z m 66.089492,0.02216 c -0.0337,0.01769 -0.0675,0.03528 -0.10138,0.05276 0.0338,-0.01748 0.0676,-0.03507 0.10138,-0.05276 z m -83.387892,0.08896 c 0.03628,0.01825 0.07261,0.03638 0.108993,0.0544 -0.03638,-0.01802 -0.07271,-0.03615 -0.108993,-0.0544 z m 66.089502,0.02216 c 0.0363,0.01825 0.0726,0.03639 0.10898,0.05441 -0.0364,-0.01802 -0.0727,-0.03616 -0.10898,-0.05441 z m -65.761987,0.138875 c 0.0456,0.02208 0.09129,0.04398 0.137049,0.0657 -0.04576,-0.02172 -0.09145,-0.04362 -0.137049,-0.0657 z m 66.089497,0.02216 c 0.0456,0.02212 0.0913,0.04406 0.13705,0.06581 -0.0458,-0.02175 -0.0914,-0.04369 -0.13705,-0.06581 z m -51.463015,0.737438 c -0.04114,0.01488 -0.08233,0.02961 -0.123559,0.0442 0.04123,-0.01459 0.08242,-0.02932 0.123559,-0.0442 z m 66.089495,0.02216 c -0.0411,0.01488 -0.0823,0.02961 -0.12356,0.0442 0.0412,-0.01459 0.0824,-0.02932 0.12356,-0.0442 z M 68.381725,81.79267 c -0.04258,0.01434 -0.08521,0.02853 -0.127876,0.04256 0.04267,-0.01403 0.0853,-0.02822 0.127876,-0.04256 z m -12.096468,0.0033 c 0.05406,0.01838 0.108197,0.03651 0.162408,0.0544 -0.05421,-0.01789 -0.108347,-0.03602 -0.162408,-0.0544 z m 78.185963,0.01876 c -0.0426,0.01434 -0.0852,0.02853 -0.12787,0.04256 0.0427,-0.01403 0.0853,-0.02822 0.12787,-0.04256 z m -12.09647,0.0033 c 0.0541,0.01838 0.1082,0.03651 0.16241,0.0544 -0.0542,-0.01789 -0.10835,-0.03602 -0.16241,-0.0544 z m -65.739857,0.0929 c 0.0625,0.01978 0.125087,0.03923 0.187768,0.05835 -0.06268,-0.01912 -0.125271,-0.03857 -0.187768,-0.05835 z m 66.089497,0.02216 c 0.0625,0.01978 0.12509,0.03923 0.18777,0.05835 -0.0627,-0.01912 -0.12527,-0.03857 -0.18777,-0.05835 z m -55.069995,0.0895 c -0.05748,0.0171 -0.115035,0.03392 -0.172661,0.05046 0.05763,-0.01654 0.115181,-0.03336 0.172661,-0.05046 z m 66.089495,0.02216 c -0.0575,0.0171 -0.11503,0.03392 -0.17266,0.05046 0.0576,-0.01654 0.11518,-0.03336 0.17266,-0.05046 z m -66.501181,0.09466 c -0.04421,0.01208 -0.08845,0.024 -0.132733,0.03576 0.04428,-0.01176 0.08853,-0.02368 0.132733,-0.03576 z m 66.089491,0.02216 c -0.0442,0.01208 -0.0884,0.024 -0.13273,0.03576 0.0443,-0.01176 0.0885,-0.02368 0.13273,-0.03576 z m -75.75307,0.02216 c 0.06341,0.01657 0.126901,0.0328 0.190466,0.0487 -0.06356,-0.0159 -0.127055,-0.03213 -0.190466,-0.0487 z m 66.08949,0.02216 c 0.0634,0.01657 0.1269,0.0328 0.19047,0.0487 -0.0636,-0.0159 -0.12706,-0.03213 -0.19047,-0.0487 z m -56.995152,0.07876 c -0.04331,0.01035 -0.08666,0.02055 -0.130033,0.0306 0.04338,-0.01005 0.08672,-0.02025 0.130033,-0.0306 z m 66.089502,0.02216 c -0.0433,0.01035 -0.0867,0.02055 -0.13004,0.0306 0.0434,-0.01005 0.0867,-0.02025 0.13004,-0.0306 z m -74.598954,0.0204 c 0.06378,0.01452 0.127629,0.02871 0.191544,0.04256 -0.06391,-0.01385 -0.127764,-0.02804 -0.191544,-0.04256 z m 66.089504,0.02216 c 0.0638,0.01448 0.12763,0.02863 0.19154,0.04245 -0.0639,-0.01382 -0.12776,-0.02797 -0.19154,-0.04245 z m -58.747127,0.174578 c -0.03901,0.0067 -0.07804,0.01336 -0.117085,0.01985 0.03905,-0.0065 0.07808,-0.01311 0.117085,-0.01985 z m 66.089487,0.02216 c -0.039,0.0067 -0.078,0.01336 -0.11707,0.01985 0.039,-0.0065 0.0781,-0.01311 0.11707,-0.01985 z m -66.269161,0.0077 c -0.04674,0.0076 -0.0935,0.01495 -0.140285,0.02216 0.04679,-0.0072 0.09355,-0.0146 0.140285,-0.02216 z m 66.089491,0.02216 c -0.0467,0.0076 -0.0935,0.01495 -0.14029,0.02216 0.0468,-0.0072 0.0935,-0.0146 0.14029,-0.02216 z m -67.445954,0.147376 c -0.0507,0.0046 -0.101422,0.0089 -0.152157,0.01305 0.05074,-0.0041 0.101454,-0.0085 0.152157,-0.01305 z m -0.185071,0.01525 c -0.05861,0.0046 -0.117246,0.009 -0.175897,0.01305 0.05865,-0.0041 0.117284,-0.0084 0.175897,-0.01305 z m -2.867778,0.0033 c 0.04747,0.0035 0.09495,0.0068 0.142445,0.0099 -0.04749,-0.0031 -0.09497,-0.0064 -0.142445,-0.0099 z m 69.142353,0.0033 c -0.0507,0.0046 -0.10142,0.0089 -0.15216,0.01305 0.0507,-0.0041 0.10146,-0.0085 0.15216,-0.01305 z m -0.18507,0.01525 c -0.0586,0.0046 -0.11726,0.009 -0.17591,0.01305 0.0587,-0.0041 0.11729,-0.0084 0.17591,-0.01305 z m -2.86779,0.0033 c 0.0475,0.0035 0.095,0.0068 0.14245,0.0099 -0.0475,-0.0031 -0.095,-0.0064 -0.14245,-0.0099 z m -63.644193,0.0022 c -0.03722,0.0023 -0.07445,0.0045 -0.111687,0.0066 0.03724,-0.0021 0.07446,-0.0043 0.111687,-0.0066 z m 66.089493,0.02216 c -0.0372,0.0023 -0.0745,0.0045 -0.11169,0.0066 0.0372,-0.0021 0.0745,-0.0043 0.11169,-0.0066 z m -67.578148,0.0011 c 0.05503,0.0013 0.110068,0.0024 0.165108,0.0033 -0.05504,-8.57e-4 -0.110077,-0.002 -0.165108,-0.0033 z m 0.738663,0.0033 c -0.04928,9.28e-4 -0.09856,0.0017 -0.147841,0.0022 0.04928,-5.39e-4 0.09856,-0.0013 0.147841,-0.0022 z m 65.350835,0.0193 c 0.055,0.0013 0.11007,0.0024 0.16511,0.0033 -0.055,-8.57e-4 -0.11008,-0.002 -0.16511,-0.0033 z m 0.73866,0.0033 c -0.0493,9.28e-4 -0.0986,0.0017 -0.14783,0.0022 0.0493,-5.39e-4 0.0986,-0.0013 0.14783,-0.0022 z"
       style="opacity:1;fill:url(#linearGradient980);fill-opacity:1;stroke:none;stroke-width:0.449471;stroke-miterlimit:4;stroke-dasharray:none;stroke-opacity:1"
       id="path951"
       sodipodi:nodetypes="ccccsccsccsccccscccccccccccsccscccccccccccccsccccccccccccccsccsccscccccccccccccccccccccccccccccccccccccccccccccccccccccccccccccccccccccccccccccccccccccccccccccccccccccccccccccccccccccccccccccccccccccccccccccccccccccccccccccccccccccccccccccccccccccccccccccccccccccccccccccccccccccccccccccccccccccccccccccccccccccccccccccccccccccccccccccccccccccccccccccccccccccccccccccccccccccccccccccccccccccccccccccccccccccccccccccccccccccccccccccccccccccccccccccccccccccccccccccccccccccccccccccccccccccccccccccccc" />
    <ellipse
       cy="60.690708"
       cx="62.377693"
       id="path833"
       style="fill:url(#radialGradient865);fill-opacity:1;stroke:#ffffff;stroke-width:0.461198;stroke-miterlimit:4;stroke-dasharray:none;stroke-opacity:1"
       rx="12.031955"
       ry="12.142334" />
    <circle
       r="13.103959"
       cy="61.76746"
       cx="128.16821"
       id="circle906"
       style="fill:#000000;fill-opacity:1;stroke:#ffffff;stroke-width:0.5;stroke-miterlimit:4;stroke-dasharray:none;stroke-opacity:1;filter:url(#filter899)" />
    <circle
       style="fill:url(#radialGradient910);fill-opacity:1;stroke:#ffffff;stroke-width:0.47771;stroke-miterlimit:4;stroke-dasharray:none;stroke-opacity:1"
       id="circle908"
       cx="128.17998"
       cy="61.374279"
       r="12.519792" />
    <circle
       style="fill:#000000;fill-opacity:1;stroke:#ffffff;stroke-width:0.5;stroke-miterlimit:4;stroke-dasharray:none;stroke-opacity:1;filter:url(#filter899)"
       id="circle912"
       cx="95.101532"
       cy="63.975716"
       r="13.103959"
       transform="matrix(0.99396321,0,0,0.99396321,0.48056317,0.47975198)" />
    <circle
       r="12.186028"
       cy="63.641613"
       cx="94.874352"
       id="circle914"
       style="fill:url(#radialGradient916);fill-opacity:1;stroke:#ffffff;stroke-width:0.464975;stroke-miterlimit:4;stroke-dasharray:none;stroke-opacity:1" />
    <circle
       r="13.103959"
       cy="62.867878"
       cx="161.94089"
       id="circle918"
       style="fill:#000000;fill-opacity:1;stroke:#ffffff;stroke-width:0.5;stroke-miterlimit:4;stroke-dasharray:none;stroke-opacity:1;filter:url(#filter899)" />
    <circle
       style="fill:url(#radialGradient922);fill-opacity:1;stroke:#ffffff;stroke-width:0.480736;stroke-miterlimit:4;stroke-dasharray:none;stroke-opacity:1"
       id="circle920"
       cx="162.23434"
       cy="62.583424"
       r="12.599097" />
    <text
       id="text1029"
       y="65.728966"
       x="55.656052"
       style="font-style:normal;font-weight:normal;font-size:10.5833px;line-height:1.25;font-family:sans-serif;fill:#000000;fill-opacity:1;stroke:none;stroke-width:0.264583"
       xml:space="preserve"><tspan
         style="stroke-width:0.264583"
         y="65.728966"
         x="55.656052"
         id="tspan1027"
         sodipodi:role="line">01</tspan></text>
    <text
       style="fill:black;fill-opacity:1;line-height:1.25;stroke:none;font-family:sans-serif;font-style:normal;font-weight:normal;font-size:10.58333333px;white-space:pre;shape-inside:url(#rect1033);"
       id="text1031"
       xml:space="preserve" />
    <text
       id="text1039"
       y="65.367325"
       x="122.14233"
       style="font-style:normal;font-weight:normal;font-size:10.5833px;line-height:1.25;font-family:sans-serif;fill:#000000;fill-opacity:1;stroke:none;stroke-width:0.264583"
       xml:space="preserve"><tspan
         style="stroke-width:0.264583"
         y="65.367325"
         x="122.14233"
         id="tspan1037"
         sodipodi:role="line">02</tspan></text>
    <text
       id="text1043"
       y="67.010605"
       x="88.268707"
       style="font-style:normal;font-weight:normal;font-size:10.5833px;line-height:1.25;font-family:sans-serif;fill:#000000;fill-opacity:1;stroke:none;stroke-width:0.264583"
       xml:space="preserve"><tspan
         style="stroke-width:0.264583"
         y="67.010605"
         x="88.268707"
         id="tspan1041"
         sodipodi:role="line">03</tspan></text>
    <text
       id="text1047"
       y="66.834373"
       x="155.1236"
       style="font-style:normal;font-weight:normal;font-size:10.5833px;line-height:1.25;font-family:sans-serif;fill:#000000;fill-opacity:1;stroke:none;stroke-width:0.264583"
       xml:space="preserve"><tspan
         style="stroke-width:0.264583"
         y="66.834373"
         x="155.1236"
         id="tspan1045"
         sodipodi:role="line">04</tspan></text>
    <text
       id="text1051"
       y="19.243393"
       x="31.329632"
       style="font-style:normal;font-weight:normal;font-size:10.5833px;line-height:0;font-family:sans-serif;fill:#000000;fill-opacity:1;stroke:none;stroke-width:0.264583"
       xml:space="preserve"><tspan
         style="font-weight:bold;font-size:5.29167px;line-height:1.25;letter-spacing:0.0370417px;word-spacing:0.0211667px;stroke-width:0.264583"
         y="19.243393"
         x="31.329632"
         id="tspan1049"
         sodipodi:role="line">Titulek</tspan><tspan
         id="tspan1055"
         style="font-size:4.93889px;line-height:1.25;stroke-width:0.264583"
         y="25.536129"
         x="31.329632"
         sodipodi:role="line">Normální text</tspan></text>
    <text
       xml:space="preserve"
       style="font-style:normal;font-weight:normal;font-size:10.5833px;line-height:0;font-family:sans-serif;fill:#000000;fill-opacity:1;stroke:none;stroke-width:0.264583"
       x="100.65051"
       y="19.243385"
       id="text1063"><tspan
         sodipodi:role="line"
         id="tspan1057"
         x="100.65051"
         y="19.243385"
         style="font-weight:bold;font-size:5.29167px;line-height:1.25;letter-spacing:0.0370417px;word-spacing:0.0211667px;stroke-width:0.264583">Titulek</tspan><tspan
         sodipodi:role="line"
         x="100.65051"
         y="25.536121"
         style="font-size:4.93889px;line-height:1.25;stroke-width:0.264583"
         id="tspan1061">Normální text</tspan></text>
    <text
       xml:space="preserve"
       id="text885"
       style="fill:black;fill-opacity:1;line-height:1.25;stroke:none;font-family:sans-serif;font-style:normal;font-weight:normal;font-size:10.58333333px;white-space:pre;shape-inside:url(#rect887);" />
    <text
       xml:space="preserve"
       id="text893"
       style="fill:black;fill-opacity:1;line-height:1.25;stroke:none;font-family:sans-serif;font-style:normal;font-weight:normal;font-size:10.58333333px;white-space:pre;shape-inside:url(#rect895);" />
    <text
       xml:space="preserve"
       id="text899"
       style="fill:black;fill-opacity:1;line-height:1.25;stroke:none;font-family:sans-serif;font-style:normal;font-weight:normal;font-size:10.58333333px;white-space:pre;shape-inside:url(#rect901);" />
    <text
       xml:space="preserve"
       style="font-style:normal;font-weight:normal;font-size:10.5833px;line-height:0;font-family:sans-serif;fill:#000000;fill-opacity:1;stroke:none;stroke-width:0.264583"
       x="75.255928"
       y="100.92342"
       id="text1063-5"><tspan
         sodipodi:role="line"
         id="tspan1057-1"
         x="75.255928"
         y="100.92342"
         style="font-weight:bold;font-size:5.29167px;line-height:1.25;letter-spacing:0.0370417px;word-spacing:0.0211667px;stroke-width:0.264583">Titulek</tspan><tspan
         sodipodi:role="line"
         x="75.255928"
         y="107.21616"
         style="font-size:4.9389px;line-height:1.25;stroke-width:0.264583"
         id="tspan1061-0">Normální text</tspan></text>
    <text
       xml:space="preserve"
       style="font-style:normal;font-weight:normal;font-size:10.5833px;line-height:0;font-family:sans-serif;fill:#000000;fill-opacity:1;stroke:none;stroke-width:0.264583"
       x="134.58977"
       y="104.13065"
       id="text1063-4"><tspan
         sodipodi:role="line"
         id="tspan1057-2"
         x="134.58977"
         y="104.13065"
         style="font-weight:bold;font-size:5.29167px;line-height:1.25;letter-spacing:0.0370417px;word-spacing:0.0211667px;stroke-width:0.264583">Titulek</tspan><tspan
         sodipodi:role="line"
         x="134.58977"
         y="110.4234"
         style="font-size:4.9389px;line-height:1.25;stroke-width:0.264583"
         id="tspan1061-7">Normální text</tspan></text>
  </g>
</svg>
